<?xml version="1.0" encoding="UTF-8"?>
<svg xmlns="http://www.w3.org/2000/svg" xmlns:xlink="http://www.w3.org/1999/xlink" version="1.2" >
<font id="SutonnySushreeOMJ">
<font-face  font-family="SutonnySushreeOMJ" units-per-em="1178" ascent="734" descent="-320" font-style="normal" font-weight="400" font-stretch="normal" cap-height="-1" x-height="-1" underline-position="-133" underline-thickness="20" />
<missing-glyph  horiz-adv-x="589" d="M74 0 L74 863 L515 863 L515 0 L74 0 Z M147 74 L442 74 L442 789 L147 789 L147 74 Z " />
<glyph glyph-name="space" unicode="&#x20;" horiz-adv-x="269" d="" />
<glyph glyph-name="_" unicode="&#x964;" horiz-adv-x="572" d="M526 -182 Q526 -197 505.5 -208 Q485 -219 468 -219 Q427 -219 387 -179 Q384 -176 328 -106 L328 362 Q300 427 299 428 Q282 455 241 469 Q246 456 246 445 Q246 419 225 419 Q210 419 198 431 Q186 443 186 458 Q186 474 205.5 490 Q225 506 241 506 Q270 506 318 451 Q322 447 381 371 L381 -82 Q381 -165 469 -192 Q465 -179 465 -168 Q465 -142 486 -142 Q502 -142 514 -154 Q526 -166 526 -182 Z " />
<glyph glyph-name="_001" unicode="&#x965;" horiz-adv-x="636" d="M387 420 Q371 420 359 431.5 Q347 443 347 458 Q347 473 365.5 484 Q384 495 399 495 Q429 495 542 371 L542 -82 Q542 -165 630 -192 Q626 -179 626 -168 Q626 -142 648 -142 Q663 -142 675 -154 Q687 -166 687 -182 Q687 -195 662 -212.5 Q637 -230 623 -230 Q591 -230 478 -106 L474 369 Q474 421 403 447 Q398 420 387 420 Z M197 420 Q181 420 169 431.5 Q157 443 157 458 Q157 473 175.5 484 Q194 495 209 495 Q238 495 352 371 L352 -82 Q352 -165 440 -192 Q436 -179 436 -168 Q436 -142 457 -142 Q473 -142 485 -154 Q497 -166 497 -182 Q497 -195 472 -212.5 Q447 -230 433 -230 Q401 -230 287 -106 L284 369 Q284 421 217 446 L218 440 Q218 420 197 420 Z " />
<glyph glyph-name="glyph98" unicode="&#x981;" horiz-adv-x="1" d="M-161 753 Q-161 710 -201 710 Q-237 710 -237 751 Q-237 785 -199 785 Q-161 785 -161 753 Z M-78 731 Q-78 675 -107 632 Q-141 583 -193 583 Q-240 583 -292.5 641 Q-345 699 -346 745 L-337 751 L-311 745 Q-262 645 -191 645 Q-159 645 -137 670 Q-129 681 -110 718 Q-98 744 -86 744 L-78 731 Z " />
<glyph glyph-name="glyph99" unicode="&#x982;" horiz-adv-x="416" d="M336 336 Q336 283 301.5 248.5 Q267 214 215 214 Q161 214 123.5 249 Q86 284 86 337 Q86 391 122.5 426 Q159 461 212 461 Q266 461 301 425.5 Q336 390 336 336 Z M274 357 Q274 402 236 402 Q202 402 176.5 374 Q151 346 151 312 Q151 269 187 269 Q219 269 246.5 297 Q274 325 274 357 Z M593 -165 Q593 -234 501 -234 Q474 -234 421 -187 Q222 -12 98 64 L98 191 Q230 80 413 -126 Q457 -176 523 -184 Q548 -160 550 -144 L544 -132 L538 -131 Q526 -135 516 -135 Q484 -135 484 -113 Q484 -87 519 -87 Q550 -87 571.5 -110.5 Q593 -134 593 -165 Z " />
<glyph glyph-name="glyph100" unicode="&#x983;" horiz-adv-x="369" d="M316 342 Q316 284 280.5 248 Q245 212 188 212 Q133 212 94.5 246.5 Q56 281 56 335 Q56 392 96.5 428.5 Q137 465 195 465 Q249 465 282.5 430.5 Q316 396 316 342 Z M253 353 Q253 402 210 402 Q176 402 151.5 374.5 Q127 347 127 312 Q127 267 166 267 Q198 267 225.5 294 Q253 321 253 353 Z M313 21 Q313 -37 278 -74.5 Q243 -112 186 -112 Q131 -112 94.5 -77 Q58 -42 58 13 Q58 70 98 108 Q138 146 196 146 Q250 146 281.5 111 Q313 76 313 21 Z M251 22 Q251 87 198 87 Q165 87 145.5 59.5 Q126 32 126 -3 Q126 -63 170 -63 Q202 -63 226.5 -36.5 Q251 -10 251 22 Z " />
<glyph glyph-name="glyph112" unicode="&#x985;" horiz-adv-x="682" d="M758 -168 Q758 -185 740.5 -195 Q723 -205 705 -205 Q638 -205 598 -140 Q580 -111 542 -3 Q510 86 476 117 Q414 28 337 28 Q255 28 170 127 Q104 203 64 301 Q42 286 23 286 Q-10 286 -10 323 Q-10 379 53 379 Q69 379 106 313 Q154 227 184 192 Q242 127 310 127 Q360 127 394 148 Q434 173 434 220 Q434 250 420 276 Q403 306 375 306 Q358 288 341 270 Q318 251 297 251 Q264 251 239 270 Q211 290 211 322 Q211 397 292 397 Q381 397 426 346 Q455 314 492 215 Q511 166 555 88 L555 431 L-7 431 L-68 494 L693 494 L754 431 L615 431 L615 -75 Q615 -153 702 -179 Q698 -163 698 -155 Q698 -130 718 -130 Q734 -130 746 -141.5 Q758 -153 758 -168 Z " />
<glyph glyph-name="glyph113" unicode="&#x986;" horiz-adv-x="1021" d="M603 431 L603 -75 Q603 -153 691 -179 Q687 -163 687 -155 Q687 -130 707 -130 Q722 -130 734.5 -141.5 Q747 -153 747 -168 Q747 -185 729.5 -195 Q712 -205 694 -205 Q627 -205 587 -140 Q569 -111 531 -3 Q499 86 465 117 Q403 28 326 28 Q244 28 159 127 Q93 203 53 301 Q31 286 12 286 Q-21 286 -21 323 Q-21 379 41 379 Q58 379 94 313 Q143 227 173 192 Q231 127 299 127 Q348 127 383 148 Q423 173 423 220 Q423 250 409 276 Q392 306 364 306 Q347 288 329 270 Q307 251 285 251 Q253 251 228 270 Q200 290 200 322 Q200 397 281 397 Q370 397 415 346 Q444 314 481 215 Q500 166 544 88 L544 431 L-12 431 L-74 494 L675 493 Q778 493 810 478 Q857 456 889 371 Q886 442 864 581 L880 569 L910 493 L1033 493 Q1056 473 1099 431 L913 431 L914 -68 Q914 -158 999 -185 Q995 -167 995 -158 Q995 -136 1021 -136 Q1054 -136 1054 -177 Q1054 -223 1005 -223 Q943 -223 894 -158 Q848 -98 848 -35 L848 372 Q848 434 688 434 Q664 434 634.5 432.5 Q605 431 603 431 Z " />
<glyph glyph-name="glyph114" unicode="&#x987;" horiz-adv-x="545" d="M727 -207 Q727 -236 710 -257.5 Q693 -279 666 -279 Q643 -279 552 -218 Q493 -177 435 -136 Q231 5 103 39 L30 188 Q116 140 199 140 Q261 140 311 169 Q370 202 370 259 Q370 327 295 324 L266 323 Q262 280 230 251.5 Q198 223 155 223 Q89 223 89 278 Q89 358 221 396 Q216 410 201 431 L-15 431 Q-26 440 -41.5 462.5 Q-57 485 -66 494 L391 494 Q387 543 370.5 556.5 Q354 570 307 570 Q291 570 260.5 566.5 Q230 563 215 563 Q116 563 46 592 Q-49 632 -49 716 Q-49 749 -27 775 Q-5 801 28 801 Q62 801 62 771 Q62 755 50 737 Q21 737 24 785 Q-18 747 -18 725 Q-18 666 104 656 Q312 640 328 636 Q448 605 445 494 L552 494 L596 431 L266 431 L283 397 Q358 366 392 335 Q439 291 439 222 Q439 121 256 65 Q453 -100 462 -108 Q616 -232 668 -242 L685 -226 L685 -206 Q685 -206 684 -192 Q630 -192 630 -169 Q630 -145 665 -145 Q727 -145 727 -207 Z " />
<glyph glyph-name="glyph115" unicode="&#x988;" horiz-adv-x="609" d="M670 431 L178 431 L183 392 Q251 384 276 356 Q301 328 309 259 Q385 346 462 379 L558 318 Q434 204 434 38 Q434 -39 472 -90 Q512 -144 587 -155 Q599 -148 605 -106 Q547 -103 547 -87 Q547 -60 584 -60 Q614 -60 636 -79 Q658 -98 658 -128 Q658 -158 630.5 -176.5 Q603 -195 572 -195 Q482 -195 425 -96 Q377 -12 377 85 Q377 145 421 276 Q352 174 312 129 Q230 35 170 35 Q130 35 101 72 Q73 106 73 147 Q73 164 99 180 Q115 119 143 119 Q191 119 228 155.5 Q265 192 265 239 Q265 294 207 322 Q208 289 183.5 270 Q159 251 125 251 Q52 251 52 314 Q52 346 85 368 Q113 387 147 390 L115 431 L-2 431 L-67 494 L409 494 Q418 494 428.5 503.5 Q439 513 439 522 Q439 567 356 567 Q327 567 269.5 557.5 Q212 548 182 548 Q110 548 58 587 Q2 630 2 700 Q2 730 22.5 752.5 Q43 775 73 775 Q106 775 106 744 Q106 729 95 710 Q80 709 73.5 721.5 Q67 734 68 749 Q29 714 29 693 Q29 636 149 636 Q170 636 210.5 639.5 Q251 643 272 643 Q357 643 414 611 Q485 572 483 494 L609 494 L670 431 Z " />
<glyph glyph-name="glyph128" unicode="&#x989;" horiz-adv-x="611" d="M696 431 L317 431 Q313 333 313 323 Q313 242 344 229 Q356 235 389 265 Q418 292 436 296 Q448 311 463 318 Q493 318 530 254 Q565 194 565 159 Q565 71 519 4 Q467 -71 383 -71 Q254 -71 168 54 Q127 113 56 292 Q33 277 15 277 Q-18 277 -18 315 Q-18 339 -1 354.5 Q16 370 41 370 Q66 370 107 282 Q164 161 198 117 Q265 28 354 28 Q417 28 461 68 Q505 108 505 171 Q505 207 488 241 Q416 132 335 132 Q283 132 266 174 Q255 199 255 260 L255 431 L-11 431 L-69 494 L459 494 L467 523 L451 554 Q432 568 389 568 Q372 568 342 565.5 Q312 563 302 563 Q199 563 130 589 Q31 627 31 712 Q31 747 53.5 773 Q76 799 110 799 Q142 799 142 769 Q142 754 132 735 Q105 736 97 782 Q72 735 72 705 Q72 647 207 647 Q228 647 259.5 648.5 Q291 650 297 650 Q398 650 449 623 Q518 586 519 494 L633 494 L696 431 Z " />
<glyph glyph-name="glyph129" unicode="&#x98a;" horiz-adv-x="683" d="M751 431 L362 431 L362 386 Q362 269 370 202 Q406 214 445 257 Q476 294 507 330 Q543 330 577 256 Q607 191 607 148 Q607 45 545 -20.5 Q483 -86 381 -86 Q268 -86 181 27 Q126 99 70 242 Q49 227 30 227 Q-3 227 -3 264 Q-3 288 15 304 Q33 320 58 320 Q89 320 119 247 Q147 179 175 110 Q213 36 261 33 Q256 84 226 176 Q193 276 186 321 Q162 304 142 304 Q108 304 108 341 Q108 365 127 381 Q146 397 171 397 Q209 397 230 299 Q262 154 279 118 Q325 21 421 21 Q481 21 515 63 Q549 105 549 166 Q549 202 537 233 Q510 195 472 163 Q424 123 389 123 Q296 123 296 312 Q296 340 298 380 Q301 429 301 431 L-11 431 L-72 494 L478 494 Q484 518 484 519 Q484 560 407 560 Q374 560 309 548 Q244 536 212 536 Q118 536 47 568 Q-47 610 -47 691 Q-47 724 -24.5 750 Q-2 776 30 776 Q63 776 63 747 Q63 731 53 712 Q22 713 25 761 Q-14 722 -14 701 Q-14 620 104 620 Q141 620 214.5 627 Q288 634 325 634 Q513 634 527 494 L691 494 L751 431 Z " />
<glyph glyph-name="_002" unicode="&#x98b;" horiz-adv-x="680" d="M739 -49 Q739 -63 721.5 -80.5 Q704 -98 690 -98 Q624 -98 587 -40 Q583 -33 531 83 Q497 161 449 191 L449 -19 Q449 -104 537 -129 Q532 -115 532 -106 Q532 -81 554 -81 Q569 -81 581 -92.5 Q593 -104 593 -119 Q593 -135 576 -151 Q559 -167 544 -167 Q488 -167 448 -128 Q408 -89 408 -34 Q408 43 320 110 Q241 171 159 177 L100 258 L332 415 Q315 428 282 443 Q226 377 125 377 Q38 377 38 450 Q38 474 56 492.5 Q74 511 98 511 Q140 511 149 459 Q219 467 263 532 Q331 499 388 416 L388 599 L449 544 L449 258 Q485 235 533 196 L533 598 L590 555 L590 494 L686 494 L749 431 L594 431 L594 57 Q594 -33 683 -60 Q678 -45 678 -36 Q678 -11 700 -11 Q716 -11 727.5 -22.5 Q739 -34 739 -49 Z M389 90 L389 327 Q336 312 302 289 Q282 276 229 229 Q291 198 320 172 Q342 151 389 90 Z " />
<glyph glyph-name="_003" unicode="&#x98c;" horiz-adv-x="451" d="M234 -64 Q241 24 241 37 Q241 80 210 113 Q179 146 137 146 Q104 146 104 105 Q104 94 108.5 90 Q113 86 118 81 Q172 81 172 23 Q172 -35 133 -35 Q89 -35 67 6 Q50 38 50 87 Q50 130 74 166 Q101 206 143 206 Q214 206 258 136 Q297 75 294 2 Q328 34 337 45 Q358 72 358 102 Q358 206 287 248 Q221 273 155 297 Q85 327 85 401 Q85 450 110 490 Q138 535 183 535 Q204 535 217.5 517 Q231 499 231 477 Q231 458 216 435 Q216 433 191.5 410.5 Q167 388 167 369 Q167 331 232 314 Q323 290 352 267 Q416 217 416 98 Q416 32 373 -17 Q330 -66 266 -66 Q247 -66 234 -64 Z " />
<glyph glyph-name="_004" unicode="&#x98f;" horiz-adv-x="628" d="M703 -187 Q703 -201 679 -218.5 Q655 -236 641 -236 Q584 -236 552 -173 Q527 -115 503 -57 Q471 6 412 6 Q384 6 328.5 -3 Q273 -12 245 -12 Q152 -12 100 37.5 Q48 87 48 179 Q48 233 66 291 Q20 300 20 333 Q20 353 35 369 Q50 385 69 385 Q89 385 105 371 Q121 357 121 337 Q121 314 104 272 Q87 230 87 207 Q87 128 134 98 Q168 75 242 75 Q259 75 294 76.5 Q329 78 346 78 Q403 78 495 21 L495 412 Q495 433 474 433 Q431 433 378 373 Q332 321 315 273 L339 274 Q392 276 392 215 Q392 184 369 166 Q346 148 313 148 Q270 148 244.5 177.5 Q219 207 219 251 Q219 327 292.5 405.5 Q366 484 441 484 Q501 484 534 439 Q567 394 567 203 Q567 153 564.5 74.5 Q562 -4 562 -22 Q562 -93 574 -127 Q592 -180 647 -199 Q642 -185 642 -174 Q642 -149 664 -149 Q679 -149 691 -160.5 Q703 -172 703 -187 Z " />
<glyph glyph-name="_005" unicode="&#x990;" horiz-adv-x="714" d="M714 -181 Q714 -194 696 -210.5 Q678 -227 664 -227 Q592 -227 556 -154 Q532 -87 508 -21 Q495 6 419 6 Q394 6 343.5 2 Q293 -2 267 -2 Q71 -2 71 176 Q71 232 89 292 Q42 301 42 334 Q42 354 57 370 Q72 386 92 386 Q112 386 127.5 371.5 Q143 357 143 337 Q143 315 126.5 273.5 Q110 232 110 210 Q110 130 163 102 Q199 83 283 83 Q290 83 304 83 Q318 83 325 83 Q394 83 427 72 Q448 65 508 27 L508 375 Q487 419 465 419 Q419 419 331 279 L355 280 Q412 282 412 222 Q412 192 384 172 Q360 154 328 154 Q284 154 260 183 Q236 212 236 257 Q236 324 309.5 408 Q383 492 448 492 Q497 492 530 458.5 Q563 425 569 375 Q621 378 621 424 Q621 508 514 559 Q414 599 314 638 Q207 689 207 770 Q207 841 271 841 Q316 841 316 816 Q316 800 302 778 Q275 777 274 818 Q241 783 241 762 Q241 700 351 660 Q454 623 556 587 Q667 532 667 433 Q667 350 569 284 L569 -74 Q569 -113 594.5 -146 Q620 -179 658 -189 Q653 -175 653 -166 Q653 -142 674 -142 Q689 -142 701.5 -153.5 Q714 -165 714 -181 Z " />
<glyph glyph-name="_006" unicode="&#x993;" horiz-adv-x="610" d="M555 108 Q555 39 503 -10.5 Q451 -60 382 -60 Q188 -60 36 306 Q13 290 -6 290 Q-39 290 -39 327 Q-39 353 -20.5 368.5 Q-2 384 25 384 Q35 384 90 292 Q157 177 211 119 Q297 26 385 26 Q432 26 467 49 Q507 76 507 119 Q507 152 478 183 Q448 158 420 158 Q391 158 374.5 181 Q358 204 358 233 Q358 298 421 298 Q443 298 470 288 Q513 318 513 364 Q513 410 444 410 Q398 410 354 391 Q307 371 282 336 Q314 308 314 270 Q314 220 253 220 Q175 220 175 293 Q175 377 253 429 Q322 475 410 475 Q466 475 507 440 Q552 404 552 349 Q552 274 508 213 Q555 167 555 108 Z " />
<glyph glyph-name="_007" unicode="&#x994;" horiz-adv-x="695" d="M654 405 Q654 304 547 198 Q584 138 584 82 Q584 15 537 -24 Q494 -60 426 -60 Q297 -60 185 60 Q97 153 36 296 Q13 280 -6 280 Q-38 280 -38 318 Q-38 342 -22 357.5 Q-6 373 19 373 Q57 337 136 230 Q206 134 258 95 Q336 35 439 35 Q475 35 502 56 Q533 79 533 114 Q533 149 503 178 Q474 152 444 152 Q416 152 397.5 175 Q379 198 379 227 Q379 288 446 288 Q468 288 493 280 Q538 310 538 355 Q538 405 467 405 Q357 405 303 325 Q338 296 338 267 Q338 241 316.5 225.5 Q295 210 269 210 Q198 210 198 297 Q198 375 273 423 Q337 464 420 464 Q479 464 519 439 Q566 410 566 354 Q566 319 521 233 Q614 341 614 402 Q614 462 513 498 Q420 528 326 558 Q225 604 225 687 Q225 721 245 747.5 Q265 774 297 774 Q331 774 331 743 Q331 728 320 709 Q292 707 291 749 Q257 712 257 692 Q257 637 360 611 Q534 567 551 559 Q654 512 654 405 Z " />
<glyph glyph-name="_008" unicode="&#x995;" horiz-adv-x="678" d="M746 431 L414 431 L414 398 Q499 399 561 331 Q623 263 623 176 Q623 135 597 106.5 Q571 78 530 78 Q500 78 477.5 95 Q455 112 455 142 Q455 168 473.5 185.5 Q492 203 518 203 Q551 203 597 160 Q592 233 539.5 277 Q487 321 413 323 L414 -49 Q414 -105 432 -127 Q450 -149 506 -165 Q499 -138 499 -138 Q499 -116 526 -116 Q559 -116 559 -162 Q559 -215 507 -215 Q437 -215 405 -143 Q385 -88 366 -33 Q328 38 262 85.5 Q196 133 118 140 L40 234 Q185 344 356 398 L356 431 L-6 431 L-68 494 L683 494 L746 431 Z M354 42 L354 322 Q258 286 160 214 Q307 147 354 42 Z " />
<glyph glyph-name="_009" unicode="&#x996;" horiz-adv-x="567" d="M627 -150 Q627 -164 610 -181.5 Q593 -199 580 -199 Q499 -199 453 -118 Q411 -41 370 37 Q303 126 173 140 L74 259 Q122 257 131 257 Q193 257 248 273 Q324 297 324 344 Q324 370 300 403 Q212 324 132 324 Q98 324 70 338 Q37 356 37 386 Q37 412 55 432 Q73 452 98 452 Q142 452 153 402 Q244 425 273 484 Q389 399 389 328 Q389 243 265 196 Q359 142 429 53 L429 588 L455 572 Q464 531 475 494 L578 494 L641 431 L487 431 L487 -60 Q487 -136 570 -161 Q567 -146 567 -138 Q567 -112 587 -112 Q603 -112 615 -123.5 Q627 -135 627 -150 Z " />
<glyph glyph-name="_010" unicode="&#x997;" horiz-adv-x="546" d="M629 431 L468 431 L466 -66 Q466 -147 552 -172 Q548 -157 548 -148 Q548 -124 570 -124 Q585 -124 596.5 -135.5 Q608 -147 608 -162 Q608 -177 590 -198.5 Q572 -220 558 -220 Q522 -220 481 -188 Q418 -138 404 -42 Q400 -13 400 128 Q400 258 378 317 Q343 417 237 417 Q174 417 120 337 Q169 347 188 347 Q226 347 257.5 321 Q289 295 289 257 Q289 198 187 82 L119 154 Q240 236 240 273 Q240 288 228 299 Q216 310 201 310 Q184 310 145 287.5 Q106 265 92 265 Q68 265 51.5 288 Q35 311 35 336 Q35 395 78 439.5 Q121 484 180 484 Q370 484 407 348 Q410 542 407 592 L457 494 L565 494 L629 431 Z " />
<glyph glyph-name="_011" unicode="&#x998;" horiz-adv-x="544" d="M616 431 L461 431 L461 -76 Q461 -155 546 -179 Q543 -164 543 -155 Q543 -130 563 -130 Q578 -130 590 -141.5 Q602 -153 602 -168 Q602 -183 583.5 -200 Q565 -217 550 -217 Q476 -217 429 -135 Q387 -59 345 16 Q281 98 168 98 L92 173 Q156 237 204 279 Q153 274 148 274 Q110 274 81 304 Q52 334 52 372 Q52 394 67 431 L-10 431 L-75 494 L552 494 L616 431 Z M400 40 L400 431 L217 431 Q193 431 173 412.5 Q153 394 153 370 Q153 308 225 308 Q251 308 292 353 L356 293 Q289 253 220 170 Q337 120 400 40 Z " />
<glyph glyph-name="_012" unicode="&#x999;" horiz-adv-x="593" d="M547 92 Q547 12 499 -37.5 Q451 -87 371 -87 Q263 -87 178 23 Q124 93 67 230 Q46 214 27 214 Q-7 214 -7 252 Q-7 276 11.5 292 Q30 308 54 308 Q71 308 109 230 Q158 130 198 85 Q267 7 360 7 Q411 7 450 33 Q495 63 495 111 Q495 147 464 182 Q395 88 338 88 Q258 88 236 175 Q227 211 227 326 Q134 379 74 471 L160 493 L220 392 Q232 389 232 389 Q246 389 261 416 Q282 454 296 466 Q324 494 371 494 Q415 494 445.5 466.5 Q476 439 476 397 Q476 348 428 324 Q390 305 331 305 Q305 305 283 308 L283 210 Q283 172 315 172 Q378 172 426 276 Q480 252 513.5 201 Q547 150 547 92 Z M427 412 Q427 439 394 439 Q359 439 326 418 Q290 394 290 361 Q290 333 325 333 Q360 333 393.5 356 Q427 379 427 412 Z " />
<glyph glyph-name="_013" unicode="&#x99a;" horiz-adv-x="457" d="M519 431 L119 431 Q132 364 204 329 Q266 305 328 282 Q391 253 391 197 Q391 116 318 18 Q240 -86 162 -86 Q128 -86 93.5 -48 Q59 -10 59 25 L59 431 L-7 431 L-73 494 L454 494 L519 431 Z M299 201 Q183 247 119 334 L119 26 Q119 2 138 2 Q189 2 247 66.5 Q305 131 301 182 L299 201 Z " />
<glyph glyph-name="_014" unicode="&#x99b;" horiz-adv-x="545" d="M749 -213 Q749 -247 724.5 -270.5 Q700 -294 666 -294 Q537 -210 408 -125 Q248 -23 127 -7 L69 97 Q132 77 176 77 Q244 77 321 118 Q409 166 409 228 Q409 277 319 308 Q325 282 325 270 Q325 212 263 170 Q207 132 146 132 Q61 132 61 215 L61 431 L-5 431 L-69 494 L547 494 L610 431 L120 431 Q154 374 204 362 Q220 359 316 359 Q379 359 421 310 Q463 261 463 197 Q463 86 296 25 Q361 -7 490 -120 Q608 -223 691 -252 Q722 -227 722 -197 L715 -184 L698 -200 L690 -200 Q652 -200 652 -180 Q652 -155 693 -155 Q749 -155 749 -213 Z M244 290 Q203 308 123 347 L123 203 Q123 184 147 184 Q190 184 217 216 Q244 248 244 290 Z " />
<glyph glyph-name="_015" unicode="&#x99c;" horiz-adv-x="710" d="M790 431 L381 431 Q345 418 345 398 Q345 374 391 357 Q429 343 458 343 Q484 343 577 370 L662 280 Q569 187 569 16 Q569 -153 669 -146 L691 -144 Q707 -129 707 -111 Q707 -94 679 -94 Q651 -94 651 -78 Q651 -49 683 -49 Q709 -49 730 -67.5 Q751 -86 751 -111 Q751 -139 727.5 -164 Q704 -189 676 -189 Q584 -189 540 -80 Q508 0 508 109 Q508 177 543 271 Q455 283 407 302 Q340 329 297 384 L292 384 Q265 384 236.5 334.5 Q208 285 208 255 Q208 219 254 219 Q277 219 369 270 Q399 269 429 207 Q456 151 456 116 Q456 51 414 2 Q372 -47 308 -47 Q228 -47 142 61 Q94 122 31 241 Q11 227 -8 227 Q-42 227 -42 270 Q-42 292 -27.5 309 Q-13 326 8 326 Q31 326 77 255 Q141 157 173 123 Q241 51 317 51 Q354 51 381.5 79.5 Q409 108 409 145 Q409 167 379 167 Q370 167 350 163 Q330 159 321 159 Q259 159 210 193 Q155 232 155 290 Q155 349 246 431 L-23 431 L-85 494 L728 494 L790 431 Z " />
<glyph glyph-name="_016" unicode="&#x99d;" horiz-adv-x="640" d="M711 431 Q619 428 552 431 L552 2 Q552 -63 636 -90 Q632 -76 632 -67 Q632 -42 652 -42 Q668 -42 680 -53.5 Q692 -65 692 -80 Q692 -94 674.5 -111 Q657 -128 643 -128 Q576 -128 541 -69 Q516 -10 490 49 Q458 121 401 140 L398 -62 Q397 -135 482 -161 Q478 -146 478 -137 Q478 -112 498 -112 Q513 -112 525.5 -123.5 Q538 -135 538 -150 Q538 -165 522.5 -182 Q507 -199 493 -199 Q447 -199 416 -165 Q400 -149 368 -93 Q368 3 282 72 Q206 132 103 144 L27 234 Q115 295 342 405 L342 431 L-9 431 L-70 494 L401 494 L401 207 Q446 179 489 116 L489 592 L520 569 Q524 536 535 494 L651 494 Q666 473 711 431 Z M341 57 L341 312 Q254 280 151 211 Q318 131 341 57 Z " />
<glyph glyph-name="_017" unicode="&#x99e;" horiz-adv-x="890" d="M840 63 Q840 -30 742 -30 Q681 -30 628.5 8 Q576 46 548 103 L548 -75 Q548 -164 639 -193 Q634 -177 634 -169 Q634 -143 655 -143 Q670 -143 682.5 -154.5 Q695 -166 695 -181 Q695 -198 678 -214 Q661 -230 645 -230 Q584 -230 542 -168 Q511 -111 480 -53 Q443 8 396 8 Q370 8 319.5 0.5 Q269 -7 243 -7 Q152 -7 99.5 43 Q47 93 47 183 Q47 236 66 297 Q20 305 20 339 Q20 359 35 375 Q50 391 69 391 Q119 391 119 345 Q119 323 103.5 279.5 Q88 236 88 213 Q88 119 172 93 Q212 80 333 80 Q402 80 488 29 L488 385 L462 412 Q397 411 308 274 L331 275 Q387 278 387 214 Q387 186 361.5 170 Q336 154 306 154 Q216 154 216 258 Q216 331 290 412 Q364 493 436 493 Q508 462 528 437 Q548 412 548 362 Q548 352 548 325 Q547 298 547 280 Q599 357 616 375 Q661 422 718 422 Q770 422 805 385 Q840 348 840 296 Q840 241 798 192 Q840 118 840 63 Z M798 106 Q798 121 768 154 Q722 130 706 130 Q640 130 640 185 Q640 210 657 230.5 Q674 251 699 251 Q715 251 729 243 Q755 238 759 238 Q772 238 781 260 Q787 277 787 293 Q787 347 727 347 Q674 347 612 296 Q548 242 548 190 Q548 133 604 89 Q657 47 716 47 Q746 47 770 61 Q798 78 798 106 Z " />
<glyph glyph-name="_018" unicode="&#x99f;" horiz-adv-x="480" d="M553 431 L129 431 L129 52 Q129 32 150 20 Q168 10 189 10 Q294 10 331 178 Q243 178 243 242 Q243 275 266 296 Q289 317 321 317 Q366 317 394 282.5 Q422 248 422 202 Q422 100 339 18.5 Q256 -63 154 -63 Q80 -63 69 110 Q72 121 69 431 L-2 431 L-64 494 L364 494 Q349 544 330 557 Q311 570 260 570 Q241 570 203 566 Q165 562 146 562 Q62 562 -6 597 Q-90 640 -90 716 Q-90 749 -67.5 775 Q-45 801 -13 801 Q21 801 21 771 Q21 755 10 737 Q-8 735 -14 754 Q-17 765 -16 786 Q-57 748 -57 725 Q-57 642 96 642 Q114 642 143 643.5 Q172 645 181 645 Q295 645 342 624 Q418 592 414 494 L492 494 L553 431 Z " />
<glyph glyph-name="_019" unicode="&#x9a0;" horiz-adv-x="473" d="M545 431 L280 431 Q397 293 397 169 Q397 71 352 -4 Q298 -92 207 -92 Q132 -92 80.5 -41 Q29 10 29 85 Q29 117 37 141 Q108 164 158 219 Q214 280 214 349 Q214 390 202 431 L4 431 L-58 494 L180 494 Q81 616 81 705 Q81 777 141 832 L209 774 Q133 744 133 681 Q133 601 243 494 L483 494 L545 431 Z M340 134 Q340 247 272 354 Q274 328 274 316 Q274 226 227 165 Q200 130 139 91 Q92 60 92 44 Q92 12 118 -9.5 Q144 -31 177 -31 Q243 -31 291.5 18 Q340 67 340 134 Z " />
<glyph glyph-name="_020" unicode="&#x9a1;" horiz-adv-x="608" d="M681 431 L304 431 L304 215 Q339 226 382.5 276 Q426 326 448 335 Q494 312 523 256 Q550 204 550 148 Q550 57 499 -4 Q444 -68 355 -68 Q183 -68 58 245 Q36 229 17 229 Q-16 229 -16 266 Q-16 289 0.5 306.5 Q17 324 40 324 Q64 324 108 248 Q169 143 200 108 Q266 32 342 32 Q405 32 451 67 Q502 105 502 165 Q502 203 477 240 Q450 199 411 168 Q364 130 323 130 Q239 130 239 317 Q239 343 241 382.5 Q243 422 243 431 L-7 431 L-70 494 L616 494 L681 431 Z " />
<glyph glyph-name="_021" unicode="&#x9a2;" horiz-adv-x="472" d="M550 431 L139 431 L139 94 Q139 25 183 25 Q239 25 277 79 Q307 122 319 186 Q228 186 228 253 Q228 283 250 304 Q272 325 302 325 Q401 325 401 209 Q401 113 342 37 Q279 -45 186 -45 Q113 -45 89 37 Q75 82 75 178 L75 431 L-9 431 L-69 494 L485 494 L550 431 Z " />
<glyph glyph-name="_022" unicode="&#x9a3;" horiz-adv-x="508" d="M571 -172 Q571 -185 548 -202 Q525 -219 512 -219 Q482 -219 437 -185 Q356 -125 356 0 Q356 31 362 96 Q368 161 368 193 Q368 294 320 353 Q274 408 218 408 Q170 408 143 373.5 Q116 339 116 289 Q116 213 155 205 Q163 208 163 250 Q163 292 220 292 Q284 292 284 230 Q284 192 254 171 Q228 152 189 152 Q124 152 79 195.5 Q34 239 34 304 Q34 376 81 431.5 Q128 487 199 487 Q291 487 379 328 Q379 414 370 585 L403 544 Q403 488 468 488 Q476 488 516 491 L575 431 L427 431 L427 -49 Q427 -157 515 -181 Q512 -169 512 -158 Q512 -134 532 -134 Q548 -134 559.5 -145.5 Q571 -157 571 -172 Z " />
<glyph glyph-name="_023" unicode="&#x9a4;" horiz-adv-x="659" d="M726 431 L-9 431 L-72 494 L663 494 L726 431 Z M595 152 Q595 66 531 8.5 Q467 -49 380 -49 Q294 -49 188 87 Q164 117 50 298 Q30 284 12 284 Q-21 284 -21 323 Q-21 348 -3.5 363.5 Q14 379 40 379 Q59 379 111 290 Q179 173 220 126 Q297 37 378 37 Q437 37 485.5 78.5 Q534 120 534 178 Q534 228 511 265 Q484 308 438 305 L416 304 Q435 266 435 233 Q435 157 340 157 Q298 157 274 186 Q250 215 250 257 Q250 314 289.5 348.5 Q329 383 386 383 Q480 383 539 313 Q595 247 595 152 Z " />
<glyph glyph-name="_024" unicode="&#x9a5;" horiz-adv-x="568" d="M631 -163 Q631 -178 613.5 -195 Q596 -212 581 -212 Q490 -212 452 -125 Q384 32 382 35 Q317 120 158 117 L64 230 Q172 241 223 260 Q318 295 318 371 Q318 431 235 431 Q162 431 160 385 Q177 364 185 347 Q185 327 159 313 Q137 301 115 301 Q83 301 61 323 Q39 345 39 377 Q39 438 109 469 Q162 492 232 492 Q294 492 336.5 453.5 Q379 415 379 353 Q379 246 248 176 Q355 119 428 26 L428 592 L465 554 Q472 509 498 499 Q508 496 572 494 L633 431 L487 431 L487 -67 Q487 -148 575 -175 Q570 -163 570 -151 Q570 -125 592 -125 Q607 -125 619 -137 Q631 -149 631 -163 Z " />
<glyph glyph-name="_025" unicode="&#x9a6;" horiz-adv-x="564" d="M626 431 L132 431 L132 174 Q189 246 243 288 Q297 330 381 366 L479 293 Q407 164 407 8 Q407 -38 429 -96 Q455 -167 492 -167 Q513 -167 532 -147.5 Q551 -128 551 -107 Q551 -98 549 -85 L535 -91 Q523 -90 506.5 -80.5 Q490 -71 490 -60 Q490 -31 523 -31 Q586 -31 586 -99 Q586 -138 560.5 -169 Q535 -200 497 -200 Q416 -200 376 -85 Q347 -2 347 99 Q347 161 366 253 Q213 190 145 40 L67 119 L67 431 L2 431 L-57 494 L564 494 L626 431 Z " />
<glyph glyph-name="_026" unicode="&#x9a7;" horiz-adv-x="504" d="M570 431 L422 431 L422 -68 Q422 -120 441 -146 Q460 -172 509 -185 Q504 -167 504 -158 Q504 -136 530 -136 Q544 -136 554 -148.5 Q564 -161 564 -177 Q564 -223 503 -223 Q423 -223 400 -176 Q386 -122 372 -67 Q349 8 279 53 Q197 105 108 115 L42 205 Q86 234 187 311 Q131 323 106 339 Q66 363 66 409 Q66 449 93.5 474.5 Q121 500 161 500 Q231 500 231 452 Q231 409 194 409 Q166 409 147 435 L136 399 Q153 339 202 339 Q246 339 363 416 L363 494 L510 494 L570 431 Z M363 19 L363 315 Q261 269 167 189 Q281 129 363 19 Z " />
<glyph glyph-name="_027" unicode="&#x9a8;" horiz-adv-x="522" d="M592 431 L442 431 L442 -87 Q442 -161 529 -187 Q526 -174 526 -165 Q526 -139 546 -139 Q561 -139 573.5 -150.5 Q586 -162 586 -177 Q586 -191 565.5 -208 Q545 -225 531 -225 Q484 -225 452 -192 Q430 -171 404 -119 L405 -63 Q407 41 357 135 Q297 246 201 246 Q191 246 187 238 Q201 213 229 161 Q230 89 149 89 Q45 89 45 193 Q45 249 84 284.5 Q123 320 180 320 Q313 320 383 148 L383 431 L2 431 L-58 494 L530 494 L592 431 Z " />
<glyph glyph-name="_028" unicode="&#x9aa;" horiz-adv-x="617" d="M687 431 L532 431 L532 -60 Q532 -141 608 -166 Q603 -152 603 -143 Q603 -117 624 -117 Q639 -117 651.5 -128.5 Q664 -140 664 -155 Q664 -168 640.5 -185.5 Q617 -203 603 -203 Q557 -203 506.5 -149.5 Q456 -96 455 -49 L456 -50 L457 -48 L457 272 Q430 309 402 327 L213 142 L128 173 Q188 225 188 257 Q188 306 158 306 Q145 306 121.5 296.5 Q98 287 85 287 Q70 287 52.5 301 Q35 315 35 330 Q35 392 114 441 Q184 485 251 485 Q324 485 380 441 Q432 401 460 329 L460 576 L495 552 Q498 530 516 494 L627 494 L687 431 Z M349 379 Q313 419 264 419 Q193 419 144 349 Q215 338 222 254 L349 379 Z " />
<glyph glyph-name="_029" unicode="&#x9ab;" horiz-adv-x="678" d="M734 431 L161 431 Q251 361 308 285 Q247 233 171 174 Q282 123 360 20 L360 401 Q366 403 374 403 Q471 403 538 358 Q615 306 615 213 Q615 174 590.5 145.5 Q566 117 527 117 Q464 117 464 179 Q464 204 483 220 Q502 236 527 236 Q552 225 586 203 Q585 268 531 293 Q503 306 420 316 L420 -82 Q420 -159 507 -186 Q502 -172 502 -162 Q502 -137 523 -137 Q539 -137 551 -148.5 Q563 -160 563 -175 Q563 -188 539.5 -205.5 Q516 -223 502 -223 Q464 -223 431.5 -197 Q399 -171 383 -134 Q377 -122 377 -95.5 Q377 -69 371 -56 Q340 14 266 58 Q196 100 117 102 L50 195 L206 332 Q171 358 105 385 Q19 421 0 431 Q-24 459 -57 494 L673 494 L734 431 Z " />
<glyph glyph-name="_030" unicode="&#x9ac;" horiz-adv-x="530" d="M596 431 L442 431 L442 -73 Q442 -161 532 -187 Q528 -174 528 -165 Q528 -139 548 -139 Q563 -139 576 -150.5 Q589 -162 589 -177 Q589 -190 566 -207.5 Q543 -225 529 -225 Q491 -225 454 -194 Q423 -167 404 -128 Q398 -116 397 -88 Q396 -60 389 -47 Q352 28 279 77.5 Q206 127 123 135 L50 232 Q168 310 385 399 L384 431 L-1 431 Q-25 459 -48 494 L535 494 L596 431 Z M384 31 L384 309 Q290 278 174 203 Q306 142 384 31 Z " />
<glyph glyph-name="_031" unicode="&#x9ad;" horiz-adv-x="698" d="M775 431 L-7 431 L-70 494 L711 494 L775 431 Z M639 189 Q639 93 580 22 Q518 -52 424 -52 Q297 -52 213 67 Q170 128 103 299 Q80 284 60 284 Q24 284 24 321 Q24 345 43 362 Q62 379 87 379 Q118 379 161 292 Q219 171 253 130 Q324 44 426 44 Q487 44 534 87.5 Q581 131 581 192 Q581 211 568 235.5 Q555 260 538 261 Q507 247 485.5 222.5 Q464 198 452 192 Q427 179 371 179 Q318 179 285 204 Q247 231 247 282 Q247 321 273.5 351 Q300 381 339 381 Q399 381 399 311 Q399 305 383 238 Q417 244 457 292 Q492 332 509 372 Q571 313 591 290 Q639 233 639 189 Z " />
<glyph glyph-name="_032" unicode="&#x9ae;" horiz-adv-x="538" d="M606 431 L455 431 L455 -68 Q455 -157 544 -182 Q540 -169 540 -160 Q540 -135 561 -135 Q576 -135 588 -146.5 Q600 -158 600 -173 Q600 -187 576 -203.5 Q552 -220 537 -220 Q474 -220 447 -179 Q432 -156 417 -83.5 Q402 -11 379 25 Q333 98 281 101 Q265 44 181 44 Q92 44 92 129 Q92 224 197 224 Q217 224 243 220 Q235 292 200 321 Q179 338 127 349.5 Q75 361 55 380 Q37 387 20 394 Q10 401 0 431 L-87 494 L542 494 Q554 483 606 431 Z M397 59 L397 431 L151 431 Q246 330 259 312 Q312 239 306 163 Q342 138 397 59 Z " />
<glyph glyph-name="_033" unicode="&#x9af;" horiz-adv-x="503" d="M577 431 L421 431 L421 -84 Q421 -161 508 -186 Q503 -172 503 -162 Q503 -138 524 -138 Q539 -138 551.5 -149.5 Q564 -161 564 -176 Q564 -190 541.5 -207 Q519 -224 504 -224 Q477 -224 438 -193 Q399 -162 384 -136 Q378 -124 377 -97.5 Q376 -71 370 -59 Q334 11 264 55.5 Q194 100 114 104 L37 196 Q113 271 205 339 Q131 367 58 395 Q21 412 -63 494 L512 494 L577 431 Z M360 21 L360 431 L152 431 Q234 381 294 308 Q244 268 161 176 Q231 150 274 116 Q311 85 360 21 Z " />
<glyph glyph-name="_034" unicode="&#x9b0;" horiz-adv-x="515" d="M589 431 L430 431 L430 -76 Q430 -156 513 -181 Q510 -166 510 -158 Q510 -132 530 -132 Q545 -132 557.5 -143.5 Q570 -155 570 -170 Q570 -183 547.5 -200.5 Q525 -218 511 -218 Q474 -218 437 -187 Q405 -161 386 -123 Q379 -110 377 -82 Q375 -54 369 -41 Q332 33 262 81 Q192 129 111 135 L37 232 Q166 322 368 402 L368 431 L-6 431 L-67 494 L528 494 L589 431 Z M369 19 L369 315 Q268 284 159 205 Q290 145 369 19 Z M269 -17 Q269 -73 215 -73 Q190 -73 171 -57 Q152 -41 152 -16 Q152 38 209 38 Q233 38 251 22 Q269 6 269 -17 Z " />
<glyph glyph-name="_035" unicode="&#x9b2;" horiz-adv-x="601" d="M449 229 Q449 256 429 277.5 Q409 299 382 299 Q342 299 342 243 Q342 229 345 211 L306 209 L308 229 Q310 258 268 280 Q232 299 198 299 Q158 299 128.5 273.5 Q99 248 99 208 Q99 151 156 116 Q147 152 147 160 Q147 185 163 201 Q179 217 204 217 Q241 217 261 182 Q277 153 277 113 Q277 64 187 64 Q119 64 80 106 Q41 148 41 216 Q41 283 75 330 Q114 382 178 382 Q245 382 280 326 Q298 344 318 361 Q338 378 364 378 Q396 378 422.5 360.5 Q449 343 449 312 L449 431 L-4 431 L-67 494 L606 494 L668 431 L514 431 L513 -88 Q513 -161 600 -185 Q596 -171 596 -162 Q596 -137 616 -137 Q631 -137 643.5 -148.5 Q656 -160 656 -175 Q656 -189 632 -206 Q608 -223 593 -223 Q569 -223 520 -184.5 Q471 -146 459 -116 Q448 -90 448 -21 L449 229 Z " />
<glyph glyph-name="_036" unicode="&#x9b6;" horiz-adv-x="586" d="M642 431 L497 431 L497 -68 Q497 -144 561 -162 L577 -147 Q577 -123 601 -123 Q617 -123 628.5 -133.5 Q640 -144 640 -160 Q640 -174 611.5 -190.5 Q583 -207 567 -207 Q529 -207 492 -176 Q460 -148 442 -110 Q432 -88 432 -55 Q433 -137 433 3 L433 276 Q433 308 393 361 Q353 414 323 414 Q295 414 280 364 Q359 320 359 258 Q359 229 339 207.5 Q319 186 291 186 Q240 186 209 249 Q158 184 128 184 Q49 184 49 251 Q49 337 145 377 Q103 415 77 424 Q55 431 -7 431 L-69 494 L36 494 Q135 494 181 393 Q242 493 299 493 Q348 493 384 440 Q389 433 433 345 Q435 532 433 588 Q478 526 495 514 Q524 493 586 494 Q593 481 613 461 Q637 437 642 431 Z " />
<glyph glyph-name="_037" unicode="&#x9b7;" horiz-adv-x="520" d="M592 431 L422 431 L422 -75 Q422 -153 509 -179 Q504 -164 504 -155 Q504 -130 524 -130 Q540 -130 552.5 -141.5 Q565 -153 565 -168 Q565 -182 542 -199.5 Q519 -217 504 -217 Q468 -217 432 -187 Q400 -160 382 -124 Q376 -113 374.5 -86.5 Q373 -60 366 -48 Q331 20 262 63 Q193 106 118 108 L42 204 Q96 252 209 343 Q152 357 96 371 Q16 392 7 424 Q5 426 -62 494 L529 494 L592 431 Z M361 253 L361 431 L149 431 Q282 340 361 253 Z M361 26 L361 202 Q336 231 280 278 Q259 272 168 180 Q268 137 361 26 Z " />
<glyph glyph-name="_038" unicode="&#x9b8;" horiz-adv-x="604" d="M672 431 L488 431 L488 -71 Q488 -98 517 -130 Q542 -159 570 -172 L569 -152 Q567 -128 592 -128 Q608 -128 619 -139.5 Q630 -151 630 -166 Q630 -181 612.5 -197.5 Q595 -214 580 -214 Q545 -214 505 -173 Q455 -122 438 -85 Q423 -53 423 -10 Q423 3 425 42 Q427 81 427 110 Q427 246 346 246 Q316 246 283 201 Q254 159 226 117 Q189 72 149 72 Q78 72 28 193 L70 233 Q93 161 112 161 Q147 161 219 264 Q211 333 193 353 Q180 368 143 371 Q92 376 59.5 388 Q27 400 -8 434 Q-36 464 -65 494 L610 494 L672 431 Z M423 431 L170 431 Q216 393 231 375 Q257 342 257 302 Q257 292 255 280 Q285 335 322 335 Q369 335 423 247 L423 431 Z " />
<glyph glyph-name="_039" unicode="&#x9b9;" horiz-adv-x="533" d="M745 -218 Q745 -249 720 -274.5 Q695 -300 664 -300 Q638 -300 524 -222 Q328 -87 300 -69 Q163 17 90 32 L25 191 Q121 135 200 135 Q276 135 312 155 Q361 182 361 251 Q361 324 291 324 Q273 324 255 321 Q249 279 217.5 246 Q186 213 145 213 Q117 213 97 232.5 Q77 252 77 280 Q77 367 220 406 Q231 416 231 420 Q231 420 229 433 L-1 431 L-63 494 L535 494 L596 431 L272 431 Q260 412 260 408 Q260 407 263 400 Q332 400 383.5 350 Q435 300 435 231 Q435 157 390 118 Q358 91 277 63 Q295 11 455 -116.5 Q615 -244 673 -255 Q685 -246 691 -239 Q701 -228 702 -219 Q696 -214 663 -204 Q634 -195 634 -187 Q634 -176 644 -167 Q654 -158 666 -158 Q693 -158 717 -174 Q745 -192 745 -218 Z " />
<glyph glyph-name="_040" unicode="&#x9bc;" horiz-adv-x="280" d="M240 -82 Q240 -145 174 -145 Q147 -145 127 -127 Q107 -109 107 -82 Q107 -54 126.5 -36 Q146 -18 174 -18 Q203 -18 221.5 -36 Q240 -54 240 -82 Z " />
<glyph glyph-name="_041" unicode="&#x9bd;" horiz-adv-x="1788" d="M1467 620 Q1467 557 1425 515 Q1383 473 1320 473 Q1258 473 1215 515.5 Q1172 558 1172 620 Q1172 682 1215 725 Q1258 768 1320 768 Q1382 768 1424.5 725 Q1467 682 1467 620 Z M1439 620 Q1439 671 1404.5 705.5 Q1370 740 1320 740 Q1270 740 1235 705 Q1200 670 1200 620 Q1200 571 1235 536.5 Q1270 502 1320 502 Q1370 502 1404.5 536 Q1439 570 1439 620 Z M1395 552 L1362 552 L1311 624 L1297 624 L1297 569 Q1297 558 1317 558 L1317 552 L1253 552 L1253 558 Q1272 558 1272 582 L1272 675 Q1272 699 1255 699 L1255 705 L1323 705 Q1376 705 1376 666 Q1376 637 1336 626 Q1351 603 1361 589 Q1382 559 1395 558 L1395 552 Z M1348 664 Q1348 697 1312 697 Q1305 697 1297 695 L1297 631 Q1348 631 1348 664 Z M1181 -92 Q1181 -135 1145 -135 Q1132 -135 1085 -125 Q1067 -122 1022 -113 Q996 -108 996 -88 Q996 -41 1056 -41 Q1116 -41 1133 -44 Q1181 -54 1181 -92 Z M1772 322 L1756 306 Q1703 313 1654 343 Q1626 360 1584 397 Q1551 425 1538 425 Q1416 425 1371 344 Q1336 282 1336 146 Q1336 43 1380 -64 Q1343 -84 1295 -84 L1259 -79 Q1227 -52 1153 -21 Q1072 14 1043 32 Q991 65 982 107 Q1043 134 1064 149 Q1107 182 1107 225 Q1107 294 1043 331 Q990 362 917 362 Q799 362 719 322 Q825 305 876 286 Q974 249 974 180 Q974 138 958.5 56 Q943 -26 943 -68 Q943 -286 1061 -363 Q847 -289 847 -50 Q847 -15 860 53.5 Q873 122 873 157 Q873 193 822 231 Q774 266 736 266 Q612 266 578 191 L608 166 Q664 182 703 213 Q750 213 778 173 Q803 138 803 89 Q803 -40 629 -99 Q509 -139 346 -139 Q262 -139 185 -121 Q220 -122 252 -122 Q692 -122 690 128 Q614 100 556 100 Q461 100 461 181 Q461 276 615 343 L489 347 L423 346 Q410 290 410 196 Q410 23 448 -34 Q391 -64 347 -64 L325 -62 Q221 66 127 77 L127 -130 L19 -99 L37 348 L-9 348 Q-17 348 -60 324 Q-103 300 -120 297 L-154 327 L-138 360 Q-81 389 36 390 Q11 425 11 477 Q11 584 195 661 Q347 724 472 724 Q579 724 776 646 Q988 562 1034 484 L998 468 Q915 480 840 539 Q728 625 709 636 Q618 686 488 686 Q387 686 257 631 Q103 566 96 480 Q113 411 142 391 L511 391 L511 385 Q703 402 885 402 Q1035 402 1097 379 Q1204 338 1204 213 Q1204 105 1118 67 Q1202 42 1245 7 Q1235 67 1235 120 Q1235 464 1515 464 Q1636 464 1767 337 L1772 322 Z M324 347 L127 347 L127 203 Q255 256 320 321 L324 347 Z M318 50 Q313 89 313 129 Q313 170 318 213 Q304 195 225 135 Q275 97 318 50 Z " />
<glyph glyph-name="_042" unicode="&#x9be;" horiz-adv-x="263" d="M329 431 L142 431 L142 -68 Q142 -158 229 -184 Q225 -169 225 -158 Q225 -136 251 -136 Q284 -136 284 -177 Q284 -222 235 -222 Q173 -222 124 -158 Q78 -98 78 -34 L78 372 Q78 403 36 419 Q5 431 -32 431 Q-53 450 -95 494 L-39 494 Q28 495 57 471 Q82 450 107 382 Q107 456 94 603 Q132 544 140 494 L263 494 Q286 473 329 431 Z " />
<glyph glyph-name="_043" unicode="&#x9bf;" horiz-adv-x="215" d="M739 548 Q739 529 722.5 517 Q706 505 687 505 Q649 505 580 551 Q462 630 451 637 Q368 683 296 683 Q230 683 167 645 Q95 602 94 541 L115 494 L230 494 L295 431 L135 431 L135 -98 Q135 -156 220 -184 Q216 -171 216 -160 Q216 -136 237 -136 Q252 -136 264 -147 Q276 -158 276 -173 Q276 -193 250 -208 Q228 -221 206 -221 Q158 -221 116.5 -179 Q75 -137 75 -90 L75 431 L-6 431 L-69 494 L78 494 Q19 552 19 579 Q19 644 97 697 Q169 745 237 745 Q328 745 438 684 Q506 646 601 571 Q679 510 689 510 Q703 510 703 525 Q703 531 700.5 543 Q698 555 698 559 Q698 571 710 571 Q739 571 739 548 Z " />
<glyph glyph-name="_044" unicode="&#x9c0;" horiz-adv-x="211" d="M290 431 L125 431 L125 -72 Q125 -158 214 -184 L207 -160 Q209 -141 230 -141 Q268 -141 268 -181 Q268 -223 208 -223 Q155 -223 110.5 -175.5 Q66 -128 66 -74 L66 431 L3 431 L-58 494 L69 494 Q25 611 -35 660 Q-102 715 -220 715 Q-254 715 -307 706 Q-377 694 -377 677 Q-377 652 -300 639 Q-184 618 -157 607 Q-79 578 -79 516 Q-79 461 -135 459 L-159 474 L-159 498 Q-144 512 -110 502 L-110 509 Q-109 551 -191 561 Q-268 569 -344 577 Q-426 597 -426 664 Q-426 773 -202 773 Q-70 773 12 696 Q80 630 125 494 L228 494 L290 431 Z " />
<glyph glyph-name="_045" unicode="&#x9c1;" horiz-adv-x="1" d="M91 -375 Q91 -412 65 -435 Q39 -458 2 -458 Q-50 -458 -106 -402 Q-117 -390 -191 -298 Q-236 -242 -261 -243 L-263 -243 Q-348 -297 -394 -297 Q-481 -297 -481 -217 Q-481 -177 -451 -152.5 Q-421 -128 -380 -128 Q-347 -128 -289 -165 Q-287 -154 -287 -142 Q-287 -131 -291.5 -108.5 Q-296 -86 -296 -74 Q-279 -80 -259.5 -106.5 Q-240 -133 -240 -150 Q-240 -156 -242.5 -167.5 Q-245 -179 -245 -184 L-241 -196 Q-219 -214 -177 -253 Q-136 -304 -95 -354 Q-49 -404 20 -413 Q48 -395 49 -374 Q47 -373 10 -361 Q-19 -351 -19 -343 Q-19 -315 13 -315 Q40 -315 64 -331 Q91 -350 91 -375 Z M-330 -207 Q-330 -183 -372 -183 Q-429 -183 -429 -215 Q-429 -241 -395 -241 Q-330 -241 -330 -207 Z " />
<glyph glyph-name="_046" unicode="&#x9c2;" horiz-adv-x="1" d="M168 -430 Q168 -461 141 -480.5 Q114 -500 82 -500 Q44 -500 -73 -408 Q-75 -406 -224 -281 Q-262 -308 -295 -308 Q-422 -308 -422 -227 Q-422 -184 -383 -157 Q-349 -134 -302 -134 Q-290 -134 -278 -136 L-275 -78 Q-252 -101 -245 -136 Q-268 -169 -297 -183 Q-349 -181 -369 -244 Q-345 -259 -318 -259 Q-280 -259 -232 -230 Q-108 -339 -77 -364 Q31 -448 96 -457 Q110 -446 116 -440 Q125 -429 126 -418 Q107 -411 87 -405 Q57 -395 57 -386 Q57 -358 86 -358 Q116 -358 142 -379.5 Q168 -401 168 -430 Z " />
<glyph glyph-name="_047" unicode="&#x9c3;" horiz-adv-x="1" d="M184 -391 Q184 -458 101 -458 Q86 -458 -95 -343 Q-299 -214 -318 -204 L-155 -94 L-134 -41 L-85 -126 L-211 -207 Q-131 -267 -52 -327 Q60 -406 116 -414 Q144 -390 144 -374 Q144 -362 107 -362 Q77 -362 77 -344 Q77 -315 111 -315 Q142 -315 163 -337.5 Q184 -360 184 -391 Z " />
<glyph glyph-name="_048" unicode="&#x9c4;" horiz-adv-x="1" d="M101 -340 Q184 -340 184 -273 Q184 -242 163 -219.5 Q142 -197 111 -197 Q77 -197 77 -226 Q77 -244 120 -244 Q144 -244 144 -256 Q144 -271 116 -297 Q60 -288 -52 -209 Q-131 -150 -211 -90 L-85 -8 L-134 77 L-155 23 L-318 -86 Q-308 -92 -153 -190 L-318 -299 Q-299 -309 -105 -433 Q66 -543 82 -543 Q165 -543 165 -476 Q165 -445 144 -422.5 Q123 -400 92 -400 Q58 -400 58 -429 Q58 -447 102 -447 Q125 -447 125 -459 Q125 -474 97 -500 Q41 -491 -62 -417 Q-136 -360 -211 -302 L-95 -225 Q86 -340 101 -340 Z " />
<glyph glyph-name="_049" unicode="&#x9c7;" horiz-adv-x="331" d="M352 431 Q239 431 171 340 Q111 258 111 140 Q111 89 126 26 Q147 -59 181 -59 Q190 -59 197 -33 Q206 3 214 16 Q231 42 263 42 Q296 42 316.5 21 Q337 0 337 -33 Q337 -74 308 -98.5 Q279 -123 237 -123 Q143 -123 90 -27 Q46 52 46 154 Q46 291 158 431 L-9 431 L-69 494 L291 494 Q313 475 352 431 Z " />
<glyph glyph-name="_050" unicode="&#x9c8;" horiz-adv-x="338" d="M390 431 Q240 403 167 339 Q79 262 79 119 Q79 62 113 -4 Q152 -81 202 -84 Q176 -40 176 -17 Q176 43 234 43 Q267 43 293 20 Q319 -3 319 -36 Q319 -75 286 -100.5 Q253 -126 214 -126 Q120 -126 66 -28 Q20 53 20 154 Q20 278 132 431 L-6 431 L-64 494 L209 494 Q171 532 90 551 Q-5 573 -27 585 Q-79 617 -79 696 Q-79 727 -57.5 751 Q-36 775 -6 775 Q28 775 28 745 Q28 728 17 710 Q0 708 -6 722 Q-12 736 -9 752 Q-51 718 -51 699 Q-51 641 29 627 Q104 616 179 605 Q260 580 261 494 L337 494 L390 431 Z " />
<glyph glyph-name="_051" unicode="&#x9cb;" horiz-adv-x="686" d="M111 152 Q111 100 126 37 Q147 -47 181 -47 Q190 -47 197 -21 Q206 14 214 27 Q231 53 263 53 Q296 53 316.5 32 Q337 11 337 -22 Q337 -63 308 -87.5 Q279 -112 237 -112 Q143 -112 90 -16 Q46 63 46 165 Q46 291 158 431 L-9 431 L-69 494 L344 494 Q434 494 464 485 Q523 468 547 406 Q546 427 542 486 Q538 537 538 567 L538 580 L554 569 L584 493 L689 493 Q712 472 755 430 L586 430 L587 -69 Q587 -159 673 -185 Q669 -170 669 -159 Q669 -137 695 -137 Q728 -137 728 -178 Q728 -223 679 -223 Q617 -223 568 -159 Q522 -99 522 -35 L522 371 Q522 401 450 419 Q399 431 352 431 Q239 431 172 346 Q111 268 111 152 Z " />
<glyph glyph-name="_052" unicode="&#x9cc;" horiz-adv-x="651" d="M111 152 Q111 100 126 37 Q147 -47 181 -47 Q190 -47 197 -21 Q206 14 214 27 Q231 53 263 53 Q296 53 316.5 32 Q337 11 337 -22 Q337 -63 308 -87.5 Q279 -112 237 -112 Q143 -112 90 -16 Q46 63 46 165 Q46 291 158 431 L-9 431 L-69 494 L499 494 Q513 511 513 526 Q513 572 408 576 Q239 581 215 587 Q110 611 110 706 Q110 739 132.5 765.5 Q155 792 187 792 Q221 792 221 762 Q221 746 210 728 Q180 728 183 776 Q141 739 141 716 Q141 651 275 651 Q299 651 336.5 653.5 Q374 656 382 656 Q479 656 522 624 Q573 587 566 494 L656 494 L716 431 L565 431 L565 -113 Q565 -176 649 -204 Q644 -188 644 -177 Q644 -155 670 -155 Q706 -155 706 -207 Q706 -229 665 -252 Q499 -237 499 -65 L499 431 L362 431 Q248 431 177 347 Q111 268 111 152 Z " />
<glyph glyph-name="_053" unicode="&#x9cd;" horiz-adv-x="1" d="M141 -246 Q141 -278 120 -299 Q99 -320 67 -320 Q22 -320 -206 -168 L-153 -104 Q-96 -157 -38 -210 Q37 -274 93 -287 Q117 -265 123 -241 Q112 -233 83.5 -233 Q55 -233 55 -212 Q55 -183 89 -183 Q141 -183 141 -246 Z " />
<glyph glyph-name="_054" unicode="&#x9d7;" horiz-adv-x="227" d="M287 431 L142 431 L142 -113 Q142 -176 226 -204 Q220 -188 220 -177 Q220 -155 247 -155 Q283 -155 283 -207 Q283 -229 242 -252 Q76 -237 76 -65 L76 431 L-13 431 L-75 494 L76 494 Q89 511 89 526 Q89 572 -15 576 Q-184 581 -209 587 Q-313 611 -313 706 Q-313 739 -290.5 765.5 Q-268 792 -236 792 Q-202 792 -202 762 Q-202 747 -214 728 Q-244 728 -240 776 Q-282 738 -282 716 Q-282 651 -149 651 Q-124 651 -87 653.5 Q-50 656 -41 656 Q55 656 98 625 Q150 587 143 494 L227 494 L287 431 Z " />
<glyph glyph-name="_055" unicode="&#x9dc;" horiz-adv-x="641" d="M711 431 L309 431 L309 210 Q359 223 476 340 Q509 342 543 256 Q572 182 572 139 Q572 41 517 -21 Q459 -86 362 -86 Q241 -86 155 50 Q120 106 46 292 Q24 277 4 277 Q-28 277 -28 314 Q-28 339 -10.5 354.5 Q7 370 33 370 Q64 370 106 280 Q165 152 194 112 Q261 22 355 22 Q419 22 466 58 Q518 97 518 159 Q518 196 498 234 Q469 195 429 164 Q379 125 341 125 Q242 125 242 332 Q242 355 244 388 Q245 428 245 431 L-11 431 L-90 494 L639 494 L711 431 Z M420 -191 Q420 -221 402 -241.5 Q384 -262 354 -262 Q325 -262 305 -244 Q285 -226 285 -198 Q285 -168 305 -147 Q325 -126 355 -126 Q383 -126 401.5 -144 Q420 -162 420 -191 Z " />
<glyph glyph-name="_056" unicode="&#x9dd;" horiz-adv-x="448" d="M514 431 L129 431 L129 70 Q129 33 157 33 Q195 33 245 98 Q289 155 302 200 L280 199 Q212 194 212 266 Q212 295 232 317 Q252 339 280 339 Q386 339 386 224 Q386 127 323 46 Q256 -41 162 -41 Q109 -41 83 26 Q65 74 65 138 L65 431 L-5 431 L-66 494 L451 494 L514 431 Z M254 -162 Q254 -196 234.5 -219 Q215 -242 183 -242 Q155 -242 137 -224 Q119 -206 119 -179 Q119 -146 139 -122.5 Q159 -99 191 -99 Q219 -99 236.5 -117 Q254 -135 254 -162 Z " />
<glyph glyph-name="_057" unicode="&#x9df;" horiz-adv-x="516" d="M584 431 L422 431 L422 -74 Q422 -152 509 -177 Q504 -163 504 -154 Q504 -129 524 -129 Q540 -129 552.5 -140.5 Q565 -152 565 -167 Q565 -181 542 -198.5 Q519 -216 504 -216 Q469 -216 434 -188 Q402 -164 384 -129 Q379 -118 377.5 -91.5 Q376 -65 369 -53 Q333 13 263 56.5 Q193 100 117 104 L40 197 Q122 278 206 336 Q90 389 64 403 Q-13 444 -63 494 L522 494 L584 431 Z M256 -33 Q256 -90 197 -90 Q171 -90 152 -74.5 Q133 -59 133 -33 Q133 25 193 25 Q219 25 237.5 8.5 Q256 -8 256 -33 Z M361 15 L361 431 L168 431 Q245 365 295 305 Q249 271 164 173 Q232 150 278 113 Q318 79 361 15 Z " />
<glyph glyph-name="_058" unicode="&#x9e0;" horiz-adv-x="680" d="M343 -112 Q416 -168 488 -224 Q594 -301 642 -308 Q668 -283 668 -267 Q668 -257 635 -255.5 Q602 -254 602 -237 Q602 -208 637 -208 Q667 -208 688 -230.5 Q709 -253 709 -283 Q709 -352 627 -352 Q598 -352 508 -282 Q381 -185 235 -109 L398 1 Q381 67 301 121 Q226 171 153 177 L95 258 L326 415 Q309 428 277 443 Q220 377 119 377 Q32 377 32 450 Q32 474 50.5 492.5 Q69 511 93 511 Q135 511 143 459 Q213 467 257 532 Q325 499 382 416 L382 599 L443 544 L443 258 Q479 235 528 196 L528 598 L585 555 L585 494 L681 494 L743 431 L588 431 L588 57 Q588 -33 678 -60 Q673 -45 673 -36 Q673 -11 695 -11 Q710 -11 722 -22.5 Q734 -34 734 -49 Q734 -63 716 -80.5 Q698 -98 684 -98 Q618 -98 581 -40 Q578 -34 527 82 Q492 161 443 191 L443 -47 L343 -112 Z M383 90 L383 327 Q331 312 296 289 Q277 276 224 229 Q285 198 314 172 Q337 151 383 90 Z " />
<glyph glyph-name="_059" unicode="&#x9e1;" horiz-adv-x="474" d="M285 -326 Q289 -274 289 -274 Q289 -252 273 -235 Q257 -218 235 -218 L224 -224 Q218 -234 218 -239 Q218 -243 226 -252 Q253 -252 253 -281 Q253 -311 233 -311 Q191 -311 191 -249 Q191 -226 204 -206.5 Q217 -187 238 -187 Q275 -187 298 -223 Q318 -255 316 -292 Q349 -262 349 -241 Q349 -204 288 -163 Q227 -122 227 -80 Q227 -37 265 -37 Q289 -37 289 -67 Q289 -74 281 -87.5 Q273 -101 273 -109 Q273 -123 301 -140 Q341 -165 352 -176 Q379 -204 379 -243 Q379 -277 357 -302 Q335 -327 302 -327 Q292 -327 285 -326 Z M234 -24 Q241 56 241 68 Q241 109 210 138.5 Q179 168 138 168 Q106 168 106 130 Q106 120 110.5 116 Q115 112 120 108 Q173 108 173 56 Q173 2 135 2 Q92 2 71 38 Q53 68 53 113 Q53 155 77 187 Q104 223 144 223 Q212 223 256 161 Q296 105 293 36 Q327 65 336 75 Q357 100 357 127 Q357 215 290 261 Q227 292 165 324 Q98 365 98 443 Q98 530 173 530 Q193 530 206.5 513.5 Q220 497 220 476 Q220 462 200 433 Q200 431 191 414 Q182 397 182 387 Q182 354 242 332 Q327 301 354 278 Q415 227 415 124 Q415 62 371 17.5 Q327 -27 266 -27 Q247 -27 234 -24 Z " />
<glyph glyph-name="_060" unicode="&#x9e2;" horiz-adv-x="249" d="M123 -343 Q127 -291 127 -291 Q127 -269 111 -252 Q95 -235 73 -235 L62 -241 Q56 -251 56 -256 Q56 -260 64 -268 Q91 -268 91 -298 Q91 -328 71 -328 Q28 -328 28 -265 Q28 -243 41.5 -223.5 Q55 -204 76 -204 Q113 -204 136 -240 Q156 -272 154 -309 Q187 -278 187 -258 Q187 -220 126 -179.5 Q65 -139 65 -96 Q65 -54 103 -54 Q127 -54 127 -84 Q127 -91 119 -104.5 Q111 -118 111 -125 Q111 -139 139 -157 Q178 -182 190 -193 Q217 -221 217 -260 Q217 -294 195 -319 Q173 -344 140 -344 Q130 -344 123 -343 Z " />
<glyph glyph-name="_061" unicode="&#x9e3;" horiz-adv-x="262" d="M121 -45 Q125 7 125 7 Q125 29 109 45.5 Q93 62 71 63 L60 57 Q54 47 54 41 Q54 38 62 29 Q89 29 89 0 Q89 -31 69 -31 Q27 -31 27 32 Q27 55 40 74 Q53 93 74 93 Q111 93 134 57 Q154 25 152 -12 Q185 19 185 40 Q185 77 124 118 Q63 159 63 201 Q63 243 101 243 Q125 243 125 213 Q125 206 117 193 Q109 180 109 172 Q109 158 137 141 Q177 116 188 104 Q215 77 215 38 Q215 4 193 -21.5 Q171 -47 138 -47 Q128 -47 121 -45 Z M140 -337 Q143 -285 143 -285 Q143 -263 127.5 -246.5 Q112 -230 90 -229 L79 -235 Q73 -245 73 -251 Q73 -254 80 -263 Q108 -263 108 -292 Q108 -323 88 -323 Q45 -323 45 -260 Q45 -237 58 -218 Q71 -199 93 -199 Q129 -199 151 -233 Q173 -267 171 -304 Q204 -273 204 -252 Q204 -214 142.5 -174 Q81 -134 81 -96 Q81 -54 120 -54 Q144 -54 144 -84 Q144 -91 136 -103.5 Q128 -116 128 -122 Q128 -133 155 -150 Q193 -174 207 -188 Q234 -216 234 -254 Q234 -288 212 -313.5 Q190 -339 156 -339 Q147 -339 140 -337 Z " />
<glyph glyph-name="_062" unicode="&#x9e6;" horiz-adv-x="578" d="M509 88 Q509 1 441.5 -61.5 Q374 -124 287 -124 Q186 -124 124.5 -59.5 Q63 5 63 106 Q63 196 130 252 Q194 305 285 305 Q382 305 445.5 245 Q509 185 509 88 Z M436 136 Q436 246 332 246 Q250 246 190.5 187 Q131 128 131 45 Q131 -2 158.5 -30.5 Q186 -59 234 -59 Q314 -59 375 -2 Q436 55 436 136 Z " />
<glyph glyph-name="_063" unicode="&#x9e7;" horiz-adv-x="465" d="M401 119 Q401 21 340 -54 Q276 -135 179 -135 Q141 -135 107 -112 Q69 -87 69 -50 Q69 -1 108 27 Q143 53 195 53 Q259 53 305 16 Q344 57 344 115 Q344 186 273 236 Q208 276 142 316 Q72 365 72 434 Q72 464 93.5 487.5 Q115 511 145 511 Q201 511 201 432 Q201 418 199 402 Q319 293 331 280 Q401 201 401 119 Z " />
<glyph glyph-name="_064" unicode="&#x9e8;" horiz-adv-x="578" d="M746 -174 Q746 -204 724 -223.5 Q702 -243 671 -243 Q656 -243 436 -107 Q207 35 125 52 L75 228 Q127 193 191 165 Q268 131 315 131 Q346 131 379 151 Q417 173 417 202 Q417 259 349 300 Q287 329 224 359 Q157 394 157 436 Q157 462 174 480.5 Q191 499 217 499 Q271 499 277 439 Q347 414 405 356 Q471 290 471 224 Q471 157 426 115 Q395 84 322 54 Q333 46 500 -96 Q635 -212 671 -212 Q690 -212 708.5 -201 Q727 -190 727 -173 Q706 -159 662 -149 Q660 -136 660 -136 Q660 -111 686 -111 Q711 -111 728.5 -130 Q746 -149 746 -174 Z " />
<glyph glyph-name="_065" unicode="&#x9e9;" horiz-adv-x="578" d="M541 178 Q541 76 493 0 Q437 -88 341 -88 Q245 -88 173 -9 Q118 52 71 168 Q39 259 7 351 Q-15 335 -35 335 Q-67 335 -67 373 Q-67 396 -50.5 413 Q-34 430 -10 430 Q21 430 66 322 Q130 168 161 121 Q232 12 328 12 Q395 12 440.5 65 Q486 118 486 186 Q486 303 366 351 Q378 319 378 290 Q378 250 352.5 223.5 Q327 197 287 197 Q239 197 209.5 229.5 Q180 262 180 309 Q180 370 219 405.5 Q258 441 320 441 Q427 441 487 361 Q541 289 541 178 Z " />
<glyph glyph-name="_066" unicode="&#x9ea;" horiz-adv-x="578" d="M502 83 Q502 0 428 -50 Q362 -94 274 -94 Q205 -94 150 -55 Q87 -12 87 54 Q87 140 210 200 Q103 251 103 340 Q103 416 173 466 Q236 512 315 512 Q381 512 426 478 Q477 440 477 377 Q477 292 384 233 Q502 180 502 83 Z M408 364 Q402 407 364.5 432 Q327 457 282 457 Q186 457 186 377 Q186 327 228 293 Q267 260 318 260 Q352 260 377 297 Q386 311 408 364 Z M412 54 Q412 94 367 135 Q322 176 281 176 Q249 176 216.5 134 Q184 92 184 59 Q184 14 221 -13 Q253 -36 300 -36 Q344 -36 376 -13 Q412 12 412 54 Z " />
<glyph glyph-name="_067" unicode="&#x9eb;" horiz-adv-x="578" d="M523 270 Q443 248 387 181 Q330 111 330 29 Q330 -51 460 -100 Q409 -119 349 -119 Q225 -119 140 -56 Q45 15 45 135 Q45 236 135 355 Q231 481 328 481 Q340 481 401 465 L409 453 Q368 431 368 387 Q368 330 439 334 Q466 310 523 270 Z M394 279 Q320 308 300 384 Q223 344 175 275 Q123 201 123 119 Q123 44 176 -11 Q229 -66 304 -68 Q286 -36 269 -5 Q252 31 252 63 Q252 128 294 189 Q333 245 394 279 Z " />
<glyph glyph-name="_068" unicode="&#x9ec;" horiz-adv-x="680" d="M634 114 Q634 20 581 -46 Q525 -116 433 -116 Q344 -116 273 -28 Q219 39 172 163 Q142 256 111 349 Q88 334 69 334 Q37 334 37 371 Q37 395 54.5 411.5 Q72 428 97 428 Q129 428 174 314 Q239 150 269 101 Q339 -13 432 -13 Q497 -13 540 25 Q583 63 583 128 Q583 172 561 215 Q503 132 410 132 Q331 132 300 222 Q287 260 276 378 Q225 385 225 435 Q225 487 291 487 Q363 487 363 358 Q363 338 361 305.5 Q359 273 359 264 Q359 192 394 192 Q476 192 526 340 Q634 254 634 114 Z " />
<glyph glyph-name="_069" unicode="&#x9ed;" horiz-adv-x="508" d="M564 -210 Q564 -222 541.5 -235.5 Q519 -249 505 -249 Q459 -249 401 -177.5 Q343 -106 343 17 Q343 41 345.5 88 Q348 135 348 158 L185 157 Q138 156 94.5 202.5 Q51 249 51 296 Q51 364 105.5 421.5 Q160 479 228 479 Q303 479 361 415 Q419 351 419 274 L419 -113 Q419 -142 443.5 -180 Q468 -218 495 -218 Q503 -213 512 -195.5 Q521 -178 529 -173 Q540 -176 552 -188 Q564 -200 564 -210 Z M350 267 Q350 307 324 359 Q293 419 258 419 Q209 419 166 370 Q123 321 123 271 Q123 241 151 241 L348 241 Q350 258 350 267 Z " />
<glyph glyph-name="_070" unicode="&#x9ee;" horiz-adv-x="622" d="M581 301 Q580 243 540 224 Q518 214 449 211 Q401 208 401 191 Q401 177 412 151 Q423 125 423 111 Q423 37 351.5 -34 Q280 -105 207 -105 Q185 -105 142.5 -63 Q100 -21 100 1 L100 368 Q36 373 36 429 Q36 451 50 469 Q64 487 86 487 Q172 487 172 337 L172 337 L172 336 L171 331 L170 313 L167 233 Q226 298 273 298 Q302 298 336 269 Q361 243 387 217 Q398 225 404 242 Q412 264 416 270 Q428 285 492 290 Q550 294 561 329 L581 301 Z M339 152 Q339 214 257 214 Q210 214 165 183 L166 -36 Q230 -26 284.5 31.5 Q339 89 339 152 Z " />
<glyph glyph-name="_071" unicode="&#x9ef;" horiz-adv-x="578" d="M526 98 Q526 21 445 -41 Q371 -97 291 -99 Q312 -6 312 36 Q312 83 285 118.5 Q258 154 212 154 Q180 154 159 122 Q140 94 140 60 Q140 31 157 13 L165 13 Q223 15 223 -45 Q223 -68 210 -85.5 Q197 -103 174 -103 Q124 -103 98 -66 Q74 -33 74 19 Q74 91 114 146 Q159 208 228 208 Q302 208 344 138 Q381 78 377 1 Q418 31 429 43 Q455 71 455 101 Q455 185 350 241 Q252 283 154 324 Q49 376 49 452 Q49 515 106 515 Q130 515 147 498 Q164 481 164 457 Q164 440 140 409 Q143 394 245 365 Q367 330 428 286 Q526 215 526 98 Z " />
<glyph glyph-name="_072" unicode="&#x9f0;" horiz-adv-x="530" d="M596 431 L442 431 L442 -73 Q442 -161 532 -187 Q528 -174 528 -165 Q528 -139 548 -139 Q563 -139 576 -150.5 Q589 -162 589 -177 Q589 -190 566 -207.5 Q543 -225 529 -225 Q491 -225 454 -194 Q423 -167 404 -128 Q398 -116 397 -88 Q396 -60 389 -47 Q352 28 279 77.5 Q206 127 123 135 L50 232 Q168 310 385 399 L384 431 L-1 431 Q-25 459 -48 494 L535 494 L596 431 Z M382 202 L382 309 Q328 292 297 277 L382 202 Z M232 241 Q213 228 174 203 Q262 162 382 65 L382 134 L232 241 Z " />
<glyph glyph-name="_073" unicode="&#x9f1;" horiz-adv-x="530" d="M596 431 L442 431 L442 -73 Q442 -161 532 -187 Q528 -174 528 -165 Q528 -139 548 -139 Q563 -139 576 -150.5 Q589 -162 589 -177 Q589 -190 566 -207.5 Q543 -225 529 -225 Q491 -225 454 -194 Q423 -167 404 -128 Q398 -116 397 -88 Q396 -60 389 -47 Q352 28 279 77.5 Q206 127 123 135 L50 232 Q173 313 382 399 L382 431 L-1 431 Q-25 459 -48 494 L535 494 L596 431 Z M382 202 L382 309 Q328 292 297 277 L382 202 Z M232 241 Q213 228 174 203 Q262 162 382 65 L382 134 L232 241 Z M365 -113 Q365 -145 344.5 -166.5 Q324 -188 292 -188 Q247 -188 19 -36 Q66 21 72 21 L73 21 Q146 -46 189 -80 Q270 -142 318 -153 Q342 -132 348 -108 Q343 -104 306 -100 Q280 -97 280 -78 Q280 -50 314 -50 Q365 -50 365 -113 Z " />
<glyph glyph-name="_074" unicode="&#x9f2;" horiz-adv-x="432" d="M402 -141 L379 -176 Q330 -8 267 80 Q175 208 35 208 L91 305 Q148 292 201 261 Q264 225 287 180 Q340 73 402 -141 Z " />
<glyph glyph-name="_075" unicode="&#x9f3;" horiz-adv-x="460" d="M425 71 Q425 -24 354 -82 Q288 -137 191 -137 Q117 -137 94 -9 Q84 49 84 176 L42 176 L42 230 L88 230 Q88 243 90.5 270.5 Q93 298 93 311 Q93 382 64 382 Q48 382 27 365 Q9 395 9 414 Q9 431 34 441 Q54 448 75 448 Q157 448 157 323 Q157 321 151 231 L174 231 L174 176 L149 176 Q149 69 154 38 Q169 -55 227 -55 Q270 -55 299 -24 Q328 7 332 52 Q299 52 274 69 Q245 88 245 120 Q245 153 271 173 Q297 193 330 193 Q376 193 403 153 Q425 119 425 71 Z " />
<glyph glyph-name="_076" unicode="&#x9f4;" horiz-adv-x="485" d="M442 398 Q400 244 292 101 Q230 19 83 18 L37 127 Q68 120 99 120 Q289 120 422 438 L442 398 Z " />
<glyph glyph-name="_077" unicode="&#x9f5;" horiz-adv-x="579" d="M557 319 Q552 158 450 45 Q351 -63 189 -96 L167 -23 Q236 1 236 64 Q236 90 224 109 Q210 132 186 132 Q159 132 134 112.5 Q109 93 114 67 L62 63 Q66 117 102 159 Q141 205 193 205 Q241 205 270.5 175.5 Q300 146 300 99 Q300 49 264 3 Q443 108 507 334 L557 319 Z " />
<glyph glyph-name="_078" unicode="&#x9f6;" horiz-adv-x="684" d="M207 -92 Q171 -92 138 -74 Q99 -52 99 -19 Q99 20 144 42 Q185 57 226 72 Q271 90 271 121 Q271 144 253 163 Q235 182 214 182 Q190 182 175 140.5 Q160 99 134 99 Q92 99 92 143 Q92 183 151 213 Q202 238 247 238 Q288 238 317 208 Q346 178 346 137 Q346 92 294 57 Q268 40 197 10 Q145 -12 145 -24 Q145 -43 188 -40 L204 -38 Q385 -24 459 76 Q501 133 528 279 Q552 413 599 458 Q610 469 622 480 Q634 491 650 491 Q667 491 681.5 477 Q696 463 696 447 Q696 434 651 390 Q600 340 584 295 Q576 272 555 151 Q530 6 438 -48 Q363 -92 207 -92 Z " />
<glyph glyph-name="_079" unicode="&#x9f7;" horiz-adv-x="274" d="M240 -130 L185 -130 L185 397 L240 397 L240 -130 Z " />
<glyph glyph-name="_080" unicode="&#x9f8;" horiz-adv-x="431" d="M409 -89 Q409 -101 403 -110 Q393 -113 385 -113 Q330 -113 330 -89 L330 116 Q330 240 303 240 Q288 240 221 151 Q146 52 132 41 Q113 36 99 36 Q57 36 57 118 L57 438 Q63 450 83 464 L86 464 Q132 465 132 291 Q132 307 126 136 Q170 213 199 246 Q252 305 311 305 Q405 305 405 135 Q405 111 402.5 70.5 Q400 30 400 17 Q400 0 404.5 -35.5 Q409 -71 409 -89 Z " />
<glyph glyph-name="_081" unicode="&#x9f9;" horiz-adv-x="349" d="M299 105 Q299 54 268.5 23.5 Q238 -7 188 -7 Q137 -7 107.5 23.5 Q78 54 78 105 Q78 155 108 186 Q138 217 188 217 Q237 217 268 185.5 Q299 154 299 105 Z M248 105 Q248 166 187 166 Q126 166 126 105 Q126 42 187 42 Q248 42 248 105 Z " />
<glyph glyph-name="_082" unicode="&#x9fa;" horiz-adv-x="616" d="M320 308 Q320 287 304 270 Q288 253 266 253 Q244 253 227.5 269.5 Q211 286 211 308 Q211 330 228 346.5 Q245 363 266 363 Q287 363 303.5 346 Q320 329 320 308 Z M587 370 Q355 -3 202 -3 Q140 -3 107 60 Q81 111 81 180 Q81 236 97 329 L152 317 Q138 267 138 210 Q138 53 200 53 Q317 53 539 401 L587 370 Z " />
<glyph glyph-name="_845" unicode="&#x9b3;" horiz-adv-x="526" d="M445 495 L444 -69 Q444 -146 531 -172 Q527 -159 527 -148 Q527 -123 547 -123 Q562 -123 574.5 -134.5 Q587 -146 587 -162 Q587 -184 568.5 -197 Q550 -210 527 -210 Q455 -210 427 -152 Q407 -95 387 -38 Q355 31 279.5 79 Q204 127 124 134 L52 232 Q198 331 217 343 Q312 402 394 431 L393 495 L445 495 Z M385 31 L385 309 Q293 278 175 203 Q305 141 385 31 Z " />
<glyph glyph-name="_846" unicode="&#x9ce;" horiz-adv-x="509" d="M464 -59 Q464 -142 413.5 -190 Q363 -238 280 -238 Q246 -238 223 -209.5 Q200 -181 200 -147 Q200 -116 219 -94.5 Q238 -73 268 -73 Q311 -73 311 -109 Q311 -133 288 -139 Q284 -141 246 -143 L243 -149 Q247 -169 274 -194 Q332 -187 371 -159 Q419 -125 419 -72 Q419 4 318 56 Q224 100 130 145 Q28 209 28 317 Q28 399 85 451 Q142 503 225 503 Q290 503 331.5 465 Q373 427 373 362 Q373 315 342.5 286.5 Q312 258 266 258 Q207 258 166 301 Q129 340 118 400 Q88 368 88 334 Q88 256 185 205 Q276 162 366 118 Q464 54 464 -59 Z M312 375 Q312 430 211 430 Q193 430 172 424 Q169 406 169 398 Q169 368 198 347 Q224 328 255 328 Q312 328 312 375 Z " />
<glyph glyph-name="_847" unicode="&#x9fb;" horiz-adv-x="572" d="M526 -182 Q526 -197 505.5 -208 Q485 -219 468 -219 Q427 -219 387 -179 Q384 -176 328 -106 L328 362 Q300 427 299 428 Q282 455 241 469 Q246 456 246 445 Q246 419 225 419 Q210 419 198 431 Q186 443 186 458 Q186 474 205.5 490 Q225 506 241 506 Q270 506 318 451 Q322 447 381 371 L381 -82 Q381 -165 469 -192 Q465 -179 465 -168 Q465 -142 486 -142 Q502 -142 514 -154 Q526 -166 526 -182 Z " />
<glyph glyph-name="_848" unicode="&#x9fc;" horiz-adv-x="626" d="M400 446 Q401 422 383 422 Q369 422 358 433 Q347 444 347 458 Q347 495 400 495 Q428 495 542 371 L542 -82 Q542 -165 629 -192 Q627 -178 627 -168 Q627 -143 647 -143 Q663 -143 674.5 -154.5 Q686 -166 686 -181 Q686 -195 662 -212.5 Q638 -230 623 -230 Q588 -230 474 -106 L474 368 Q474 420 403 447 L400 446 Z M197 420 Q181 420 169 431.5 Q157 443 157 458 Q157 495 209 495 Q238 495 352 371 L352 -82 Q352 -165 440 -192 Q436 -178 436 -168 Q436 -143 458 -143 Q473 -143 485 -154.5 Q497 -166 497 -181 Q497 -195 472 -212.5 Q447 -230 433 -230 Q398 -230 284 -106 L284 368 Q284 420 213 447 L213 443 Q213 420 197 420 Z " />
<glyph glyph-name="_849" unicode="&#x9e5;" horiz-adv-x="890" d="M843 214 Q843 114 788 44 Q729 -31 631 -31 Q608 -31 482 16 Q346 66 305 72 L246 215 Q327 166 401 166 Q455 166 498 193 Q547 224 547 275 Q547 330 480 330 Q466 330 452 327 Q446 291 419 264 Q392 237 357 237 Q291 237 291 290 Q291 339 345 365 Q388 384 443 384 Q504 384 555.5 342 Q607 300 607 240 Q607 191 557 155 Q539 141 465 106 Q522 62 591 62 Q676 62 725.5 104 Q775 146 775 230 Q775 341 694 408 Q619 470 506 470 Q344 470 246.5 360.5 Q149 251 149 88 Q149 -95 270 -174 Q369 -239 563 -239 Q597 -239 640 -218 Q691 -193 691 -163 Q691 -144 665 -144 Q648 -144 642.5 -156 Q637 -168 622 -168 Q610 -168 601 -151 Q602 -125 625 -109.5 Q648 -94 675 -94 Q743 -94 743 -151 Q743 -221 660 -266 Q591 -304 514 -304 Q319 -304 178 -190 Q27 -68 27 123 Q27 284 174 417 Q317 545 481 545 Q637 545 737 459 Q843 368 843 214 Z " />
<glyph glyph-name="_850" unicode="&#x200c;" horiz-adv-x="252" d="M211 -43 L166 -43 L166 509 L211 509 L211 -43 Z " />
<glyph glyph-name="_851" unicode="&#x200d;" horiz-adv-x="115" d="M85 403 L66 384 L15 438 L15 -238 L-15 -238 L-15 438 L-66 384 L-85 403 L-19 469 L-85 535 L-66 554 L0 487 L66 554 L85 535 L19 469 L85 403 Z " />
<glyph glyph-name="_854" unicode="&#x9b4;" horiz-adv-x="651" d="M607 337 Q637 337 327 337 Q277 337 240 364 Q200 393 200 442 Q200 480 227.5 506 Q255 532 294 532 Q306 532 319 530 L319 484 Q302 486 302 486 Q282 486 268.5 471.5 Q255 457 255 437 Q255 384 340 384 L607 384 L607 337 Z M607 239 Q637 239 164 239 Q114 239 77 265 Q36 295 36 343 Q36 382 64 408 Q92 434 131 434 Q143 434 155 431 L155 385 Q139 388 139 388 Q120 388 106 373 Q92 358 92 338 Q92 287 177 287 L607 286 L607 239 Z " />
<glyph glyph-name="_855" unicode="&#x9b5;" horiz-adv-x="677" d="M478 442 Q478 393 437 364 Q400 337 350 337 L70 337 L70 384 L337 384 Q422 384 422 437 Q422 486 373 486 Q366 486 358 484 L358 530 Q371 532 383 532 Q422 532 450 506 Q478 480 478 442 Z M641 343 Q641 295 600 265 Q564 239 513 239 L70 239 L70 286 L501 287 Q585 287 585 338 Q585 387 536 387 Q529 387 522 385 L522 431 Q534 434 547 434 Q585 434 613 408 Q641 382 641 343 Z " />
<glyph glyph-name="_856" unicode="&#x25cc;" horiz-adv-x="501" d="M434 243 L391 214 Q370 248 338 268 L368 309 Q408 284 434 243 Z M297 340 L289 290 Q251 299 212 290 L205 340 Q229 346 251 346 Q271 346 297 340 Z M463 134 Q463 110 457 87 L407 96 Q416 134 407 172 L457 181 Q463 156 463 134 Z M434 24 Q407 -18 368 -42 L338 0 Q371 20 391 53 L434 24 Z M163 268 Q131 248 110 214 L68 243 Q93 284 134 309 L163 268 Z M94 96 L45 87 Q39 108 39 134 Q39 159 45 181 L94 172 Q87 134 94 96 Z M297 -73 Q275 -79 251 -79 Q228 -79 205 -73 L212 -23 Q252 -32 289 -23 L297 -73 Z M163 0 L134 -42 Q93 -17 68 24 L110 53 Q130 21 163 0 Z " />
<glyph glyph-name="_869" unicode="&#x21;" horiz-adv-x="353" d="M235 711 Q235 608 217 458 Q202 332 186 206 L167 206 Q151 334 136 462 Q118 614 118 718 Q118 748 132 771 Q149 798 177 798 Q235 798 235 711 Z M233 48 Q233 23 217 3.5 Q201 -16 176 -16 Q151 -16 135 3.5 Q119 23 119 48 Q119 72 135.5 91.5 Q152 111 176 111 Q200 111 216.5 91.5 Q233 72 233 48 Z " />
<glyph glyph-name="_870" unicode="&#x22;" horiz-adv-x="433" d="M362 736 Q362 678 349 598 Q336 530 323 462 L298 462 Q285 528 272 594 Q258 673 258 728 Q258 798 311 798 Q335 798 348.5 779.5 Q362 761 362 736 Z M172 736 Q172 679 157 598 Q144 530 131 462 L109 462 Q96 528 83 594 Q69 672 69 728 Q69 798 120 798 Q144 798 158 779.5 Q172 761 172 736 Z " />
<glyph glyph-name="_871" unicode="&#x23;" horiz-adv-x="530" d="M511 246 L370 246 L322 -16 L280 -16 L327 246 L152 246 L102 -16 L60 -16 L108 246 L19 246 L19 293 L116 293 L152 490 L19 490 L19 536 L162 536 L209 798 L252 798 L204 536 L379 536 L429 798 L472 798 L423 536 L511 536 L511 490 L415 490 L379 293 L511 293 L511 246 Z M372 490 L196 490 L159 293 L335 293 L372 490 Z " />
<glyph glyph-name="_872" unicode="&#x25;" horiz-adv-x="883" d="M846 177 Q846 96 813 38 Q773 -32 698 -32 Q626 -32 584 39 Q549 100 549 177 Q549 255 583 315 Q625 387 697 387 Q769 387 811 315 Q846 255 846 177 Z M765 176 Q765 357 697 357 Q631 357 631 173 Q631 0 697 0 Q765 0 765 176 Z M721 798 L209 -32 L163 -32 L675 798 L721 798 Z M335 586 Q335 505 302 447 Q262 376 187 376 Q114 376 72 447 Q37 507 37 586 Q37 665 73 725 Q115 798 188 798 Q262 798 302 725 Q335 665 335 586 Z M254 583 Q254 766 187 766 Q120 766 120 586 Q120 405 185 405 Q254 405 254 583 Z " />
<glyph glyph-name="_873" unicode="&#x27;" horiz-adv-x="191" d="M146 736 Q146 679 131 598 Q118 530 105 462 L82 462 Q69 528 56 594 Q42 672 42 728 Q42 798 92 798 Q117 798 131.5 779.5 Q146 761 146 736 Z " />
<glyph glyph-name="_874" unicode="&#x28;" horiz-adv-x="353" d="M329 -252 Q192 -175 115 -24 Q43 117 43 282 Q43 450 113 592 Q191 749 329 818 L329 794 Q143 679 143 297 Q143 120 175 9 Q218 -145 329 -231 L329 -252 Z " />
<glyph glyph-name="_875" unicode="&#x29;" horiz-adv-x="353" d="M310 284 Q310 116 240 -26 Q163 -183 24 -252 L24 -231 Q210 -114 210 266 Q210 444 178 555 Q135 709 24 794 L24 818 Q161 742 238 591 Q310 450 310 284 Z " />
<glyph glyph-name="_876" unicode="&#x2a;" horiz-adv-x="530" d="M456 673 Q456 634 388 610 Q337 594 287 579 Q337 563 387 548 Q454 525 454 483 Q454 466 442.5 453 Q431 440 415 440 Q386 440 342 489 Q309 524 277 559 Q278 532 292.5 478 Q307 424 307 395 Q307 376 298 360 Q287 341 269 341 Q223 341 223 396 Q223 426 237 478 Q253 535 256 559 Q252 557 189 490 Q142 440 118 440 Q101 440 88 453 Q75 466 75 483 Q75 524 142 548 Q193 564 244 579 Q193 595 142 611 Q75 634 75 676 Q75 692 86.5 705 Q98 718 114 718 Q145 718 189 670 Q248 606 256 601 Q254 626 239 679 Q224 729 224 757 Q224 818 268 818 Q307 818 307 758 Q307 729 294 679 Q279 624 277 601 Q283 605 342 669 Q385 717 415 717 Q432 717 444 703.5 Q456 690 456 673 Z " />
<glyph glyph-name="_877" unicode="&#x2b;" horiz-adv-x="598" d="M577 368 L318 368 L318 81 L277 81 L277 368 L19 368 L19 415 L277 415 L277 701 L318 701 L318 415 L577 415 L577 368 Z " />
<glyph glyph-name="_878" unicode="&#x2c;" horiz-adv-x="265" d="M211 -6 Q211 -140 57 -196 L57 -171 Q105 -153 137 -113 Q169 -73 169 -23 Q169 -18 164 -5 L157 1 Q146 -5 134 -10.5 Q122 -16 112 -16 Q57 -16 57 47 Q57 74 77 94.5 Q97 115 124 115 Q166 115 190 74 Q211 39 211 -6 Z " />
<glyph glyph-name="_879" unicode="&#x2d;" horiz-adv-x="353" d="M311 221 L43 221 L43 308 L311 308 L311 221 Z " />
<glyph glyph-name="_880" unicode="&#x2e;" horiz-adv-x="265" d="M190 48 Q190 23 173.5 3.5 Q157 -16 133 -16 Q108 -16 91.5 3.5 Q75 23 75 48 Q75 73 91.5 92.5 Q108 112 133 112 Q157 112 173.5 92.5 Q190 73 190 48 Z " />
<glyph glyph-name="_881" unicode="&#x2f;" horiz-adv-x="295" d="M297 818 L43 -16 L2 -16 L256 818 L297 818 Z " />
<glyph glyph-name="_882" unicode="&#x3a;" horiz-adv-x="295" d="M207 479 Q207 454 190.5 434.5 Q174 415 150 415 Q125 415 108.5 434.5 Q92 454 92 479 Q92 504 108.5 523.5 Q125 543 150 543 Q174 543 190.5 523.5 Q207 504 207 479 Z M207 48 Q207 23 190 3.5 Q173 -16 149 -16 Q124 -16 107.5 3.5 Q91 23 91 48 Q91 73 107.5 92.5 Q124 112 149 112 Q173 112 190 92.5 Q207 73 207 48 Z " />
<glyph glyph-name="_883" unicode="&#x3b;" horiz-adv-x="295" d="M203 480 Q203 455 187 435.5 Q171 416 146 416 Q121 416 105 435.5 Q89 455 89 480 Q89 505 105 524.5 Q121 544 146 544 Q170 544 186.5 524.5 Q203 505 203 480 Z M228 -6 Q228 -140 74 -196 L74 -171 Q122 -153 153.5 -113 Q185 -73 185 -23 Q185 -18 181 -5 L173 1 Q163 -5 151 -10.5 Q139 -16 129 -16 Q74 -16 74 47 Q74 74 93.5 94.5 Q113 115 140 115 Q182 115 207 74 Q228 39 228 -6 Z " />
<glyph glyph-name="_884" unicode="&#x3c;" horiz-adv-x="598" d="M576 108 L19 378 L19 406 L576 674 L576 624 L97 393 L576 159 L576 108 Z " />
<glyph glyph-name="_885" unicode="&#x3d;" horiz-adv-x="598" d="M578 461 L19 461 L19 508 L578 508 L578 461 Z M578 273 L19 273 L19 320 L578 320 L578 273 Z " />
<glyph glyph-name="_886" unicode="&#x3e;" horiz-adv-x="598" d="M576 376 L19 108 L19 157 L499 388 L19 622 L19 674 L576 404 L576 376 Z " />
<glyph glyph-name="_887" unicode="&#x3f;" horiz-adv-x="471" d="M370 618 Q370 545 309 408 Q246 265 242 184 L214 184 Q217 253 259 395 Q298 531 298 606 Q298 677 288 706 Q269 756 212 756 Q115 756 115 691 Q115 674 123 641 Q131 608 131 591 Q131 542 105 542 Q76 542 60 575 Q48 600 48 633 Q48 713 93 755.5 Q138 798 220 798 Q370 798 370 618 Z M286 48 Q286 23 269 3.5 Q252 -16 228 -16 Q203 -16 186.5 3.5 Q170 23 170 48 Q170 74 186.5 93.5 Q203 113 228 113 Q253 113 269.5 93.5 Q286 74 286 48 Z " />
<glyph glyph-name="_888" unicode="&#x201c;" horiz-adv-x="444" d="M410 637 Q410 606 389.5 585 Q369 564 338 564 Q301 564 277 596 Q254 625 254 663 Q254 715 288 759 Q322 803 371 823 L384 796 Q315 752 311 688 Q330 703 350 703 Q377 703 393.5 684 Q410 665 410 637 Z M210 637 Q210 606 189.5 585 Q169 564 138 564 Q98 564 75 595 Q54 623 54 663 Q54 717 86 760 Q118 803 170 823 L181 796 Q113 752 110 688 Q128 703 150 703 Q177 703 193.5 684 Q210 665 210 637 Z " />
<glyph glyph-name="_889" unicode="&#x201d;" horiz-adv-x="443" d="M410 723 Q410 671 377 627 Q344 583 295 565 L282 591 Q351 635 355 699 Q335 683 315 683 Q287 683 270.5 702 Q254 721 254 749 Q254 780 275 801.5 Q296 823 326 823 Q365 823 389 792 Q410 764 410 723 Z M210 723 Q210 671 177 627 Q144 583 94 565 L81 591 Q151 635 154 700 Q135 683 114 683 Q87 683 70.5 702.5 Q54 722 54 749 Q54 780 74.5 801.5 Q95 823 126 823 Q165 823 187.5 793 Q210 763 210 723 Z " />
<glyph glyph-name="_890" unicode="&#x2018;" horiz-adv-x="244" d="M210 637 Q210 606 189.5 585 Q169 564 138 564 Q100 564 77 594 Q54 624 54 663 Q54 715 87 759.5 Q120 804 170 823 L181 796 Q114 752 110 688 Q130 703 150 703 Q177 703 193.5 684 Q210 665 210 637 Z " />
<glyph glyph-name="_891" unicode="&#x2019;" horiz-adv-x="243" d="M210 723 Q210 671 177 627 Q144 583 94 565 L81 591 Q151 635 154 700 Q135 683 114 683 Q87 683 70.5 702.5 Q54 722 54 749 Q54 780 74.5 801.5 Q95 823 126 823 Q165 823 187.5 793 Q210 763 210 723 Z " />
<glyph glyph-name="_892" unicode="&#xb0;" horiz-adv-x="527" d="M496 653 Q496 558 434 496 Q372 434 277 434 Q183 434 120.5 496 Q58 558 58 653 Q58 747 120.5 809 Q183 871 277 871 Q372 871 434 809 Q496 747 496 653 Z M406 653 Q406 710 370 747.5 Q334 785 277 785 Q221 785 184.5 747 Q148 709 148 653 Q148 597 184.5 559.5 Q221 522 277 522 Q334 522 370 559 Q406 596 406 653 Z " />
<glyph glyph-name="_893" unicode="&#xd7;" horiz-adv-x="761" d="M737 130 L674 66 L429 313 L183 66 L120 130 L368 375 L120 620 L183 684 L429 437 L674 684 L737 620 L490 375 L737 130 Z " />
<glyph glyph-name="_894" unicode="&#xf7;" horiz-adv-x="721" d="M497 582 L360 582 L360 740 L497 740 L497 582 Z M767 329 L90 329 L90 421 L767 421 L767 329 Z M497 9 L360 9 L360 168 L497 168 L497 9 Z " />
<glyph glyph-name="_895" unicode="&#x5d;" horiz-adv-x="353" d="M267 -234 L39 -234 L39 -189 L189 -189 L189 752 L39 752 L39 798 L267 798 L267 -234 Z " />
<glyph glyph-name="_896" unicode="&#x5b;" horiz-adv-x="353" d="M315 -234 L87 -234 L87 798 L315 798 L315 752 L165 752 L165 -189 L315 -189 L315 -234 Z " />
<glyph glyph-name="_897" unicode="&#x7b;" horiz-adv-x="509" d="M435 -254 Q354 -242 297.5 -178.5 Q241 -115 241 -33 Q241 -2 253 58 Q265 118 265 149 Q265 196 228 231 Q194 263 147 270 L147 294 Q194 301 229.5 334.5 Q265 368 265 415 Q265 446 253 506 Q241 566 241 597 Q241 679 297.5 742.5 Q354 806 435 818 L435 798 Q384 784 353 751 Q318 715 318 665 Q318 634 330 573 Q342 512 342 481 Q342 415 296 360 Q254 309 189 284 Q254 257 296 206 Q342 149 342 83 Q342 52 330 -9 Q318 -70 318 -101 Q318 -202 435 -234 L435 -254 Z " />
<glyph glyph-name="_898" unicode="&#x7d;" horiz-adv-x="509" d="M380 270 Q333 263 299 231 Q262 196 262 149 Q262 118 274 58 Q286 -2 286 -33 Q286 -114 229.5 -178 Q173 -242 92 -254 L92 -234 Q209 -202 209 -101 Q209 -70 197 -9 Q185 52 185 83 Q185 149 231 204 Q273 255 338 281 Q273 307 231 359 Q185 415 185 481 Q185 512 197 573 Q209 634 209 665 Q209 715 174 751 Q143 784 92 798 L92 818 Q173 806 229.5 742 Q286 678 286 596 Q286 566 274 506 Q262 446 262 415 Q262 369 299 334 Q333 301 380 294 L380 270 Z " />
</font>
</svg>
